700 0 1 0           
30 Autodesk Translation Framework 20 ASM 230.5.0.65535 NT 24 Wed Dec 17 12:37:58 2025 
1 9.999999999999999547e-07 1.000000000000000036e-10 
body $1 -1 $-1 $2 $-1 $3 #
rgb_color-st-attrib $-1 -1 $4 $-1 $0 0.7490196078431372584 0.7490196078431372584 0.7490196078431372584 #
lump $-1 -1 $-1 $-1 $5 $0 #
transform $-1 -1 1 0 0 0 1 0 0 0 1 0 0 0 1 no_rotate no_reflect no_shear #
DXID-attrib $-1 -1 $-1 $1 $0 @10 ASM ENTITY @110 ACOPLE_EXTRUCTOR_TCP.IPT|:|FE5EBB7F9F4D2336C6EC521FA086427E1EFB38E5|:|DA4B9237BACCCDF19C0760CAB7AEC4A8359010B0 #
shell $-1 -1 $-1 $-1 $-1 $6 $-1 $2 #
face $7 -1 $-1 $8 $9 $5 $-1 $10 forward single #
DXID-attrib $-1 -1 $-1 $-1 $6 @10 ASM ENTITY @36 6c04dc48-ab30-4a52-a142-fb50a7f0c5ae #
face $11 -1 $-1 $12 $13 $5 $-1 $14 forward single #
loop $-1 -1 $-1 $15 $16 $6 #
cone-surface $-1 -1 $-1 17.64999999999999858 -144.2000000000000171 30.51999999999999602 0 -1 0 3.000000000000000444 0 0 1 I I -0.2659094590632385402 0.9639980080792158734 3.000000000000000444 forward I I I I #
DXID-attrib $-1 -1 $-1 $-1 $8 @10 ASM ENTITY @36 b19017d6-0b47-435c-956e-64120e2ce6f3 #
face $17 -1 $-1 $18 $19 $5 $-1 $20 reversed single #
loop $-1 -1 $-1 $-1 $21 $8 #
plane-surface $-1 -1 $-1 17.64999999999999858 -152.9000000000000057 30.51999999999999602 0 -1 0 0 0 -10 forward_v I I I I #
loop $-1 -1 $-1 $-1 $22 $6 #
coedge $-1 -1 $-1 $16 $16 $21 $23 forward $9 $-1 #
DXID-attrib $-1 -1 $-1 $-1 $12 @10 ASM ENTITY @36 5c59a4e6-6f9f-4428-972b-59180cf66815 #
face $24 -1 $-1 $25 $26 $5 $-1 $20 reversed single #
loop $-1 -1 $-1 $-1 $27 $12 #
plane-surface $-1 -1 $-1 9.649999999999996803 -121.2000000000000171 10 0 0 1 10 0 0 forward_v I I I I #
coedge $-1 -1 $-1 $21 $21 $16 $23 reversed $13 $-1 #
coedge $-1 -1 $-1 $22 $22 $28 $29 reversed $15 $-1 #
edge $30 -1 $-1 $31 0 $31 6.283185307179586232 $16 $32 forward @7 unknown #
DXID-attrib $-1 -1 $-1 $-1 $18 @10 ASM ENTITY @36 fd4bf8b1-812f-427a-8901-eb3731f81a81 #
face $33 -1 $-1 $34 $35 $5 $-1 $20 reversed single #
loop $-1 -1 $-1 $-1 $36 $18 #
coedge $-1 -1 $-1 $27 $27 $37 $38 forward $19 $-1 #
coedge $-1 -1 $-1 $28 $28 $22 $29 forward $39 $-1 #
edge $-1 -1 $-1 $40 0 $40 6.283185307179586232 $28 $41 forward @7 unknown #
DXID-attrib $-1 -1 $-1 $-1 $23 @10 ASM ENTITY @36 31b39a76-1da3-4938-a722-126a940448f2 #
vertex $-1 -1 $-1 $23 $42 #
ellipse-curve $-1 -1 $-1 17.64999999999999858 -152.9000000000000057 30.51999999999999602 0 1 0 0.6001897571762720984 0 0 1 I I #
DXID-attrib $-1 -1 $-1 $-1 $25 @10 ASM ENTITY @36 98223382-a0ac-482f-9afb-cac6e5a74ecd #
face $43 -1 $-1 $44 $39 $5 $-1 $45 forward single #
loop $-1 -1 $-1 $-1 $46 $25 #
coedge $-1 -1 $-1 $47 $48 $49 $50 forward $26 $-1 #
coedge $-1 -1 $-1 $37 $37 $27 $38 reversed $51 $-1 #
edge $-1 -1 $-1 $52 0 $52 6.283185307179586232 $37 $53 forward @7 unknown #
loop $-1 -1 $-1 $54 $28 $34 #
vertex $-1 -1 $-1 $29 $55 #
ellipse-curve $-1 -1 $-1 17.64999999999999858 -144.2000000000000171 30.51999999999999602 0 1 0 3.000000000000000444 0 0 1 I I #
point $-1 -1 $-1 18.25018975717626901 -152.9000000000000057 30.51999999999999602 #
DXID-attrib $-1 -1 $-1 $-1 $34 @10 ASM ENTITY @36 35593319-86e7-4761-a64f-f571cf57e110 #
face $56 -1 $-1 $57 $58 $5 $-1 $59 forward single #
plane-surface $-1 -1 $-1 -14.35000000000000497 -144.2000000000000171 10 0 -1 0 10 0 0 forward_v I I I I #
coedge $-1 -1 $-1 $60 $61 $62 $63 forward $35 $-1 #
coedge $-1 -1 $-1 $64 $36 $65 $66 forward $26 $-1 #
coedge $-1 -1 $-1 $36 $67 $68 $69 reversed $26 $-1 #
coedge $-1 -1 $-1 $70 $71 $36 $50 reversed $72 $-1 #
edge $-1 -1 $-1 $73 -1.570796326794896558 $74 0 $49 $75 forward @7 unknown #
loop $-1 -1 $-1 $-1 $37 $76 #
vertex $-1 -1 $-1 $38 $77 #
ellipse-curve $-1 -1 $-1 -6.69592453481090306e-15 -132.1000000000000227 10 -0 -0 -1 3.600000000000003642 0 0 1 I I #
loop $-1 -1 $-1 $-1 $78 $34 #
point $-1 -1 $-1 20.64999999999999503 -144.2000000000000171 30.51999999999999602 #
DXID-attrib $-1 -1 $-1 $-1 $44 @10 ASM ENTITY @36 fb4c2529-90ee-47d1-a785-07a893da1a01 #
face $79 -1 $-1 $80 $81 $5 $-1 $82 forward single #
loop $-1 -1 $-1 $-1 $83 $44 #
plane-surface $-1 -1 $-1 -14.35000000000000675 -98.20000000000000284 10 -1 -4.82705662880502707e-17 0 4.827056628805027193e-16 -10 0 forward_v I I I I #
coedge $-1 -1 $-1 $84 $46 $85 $86 forward $35 $-1 #
coedge $-1 -1 $-1 $46 $87 $88 $89 reversed $35 $-1 #
coedge $-1 -1 $-1 $90 $91 $46 $63 reversed $92 $-1 #
edge $-1 -1 $-1 $93 0.1699999999999999289 $94 0.3950000000000000178 $62 $95 forward @7 unknown #
coedge $-1 -1 $-1 $96 $47 $97 $98 forward $26 $-1 #
coedge $-1 -1 $-1 $99 $100 $47 $66 reversed $101 $-1 #
edge $-1 -1 $-1 $74 -5.605000000000000426 $102 -4.615000000000000213 $65 $103 forward @7 unknown #
coedge $-1 -1 $-1 $48 $104 $105 $106 reversed $26 $-1 #
coedge $-1 -1 $-1 $107 $78 $48 $69 forward $54 $-1 #
edge $108 -1 $-1 $73 1.434999999999999831 $109 4.800000000000000711 $68 $110 forward @7 unknown #
coedge $-1 -1 $-1 $111 $49 $84 $112 reversed $72 $-1 #
coedge $-1 -1 $-1 $49 $113 $99 $114 reversed $72 $-1 #
loop $-1 -1 $-1 $-1 $70 $115 #
vertex $-1 -1 $-1 $50 $116 #
vertex $-1 -1 $-1 $50 $117 #
ellipse-curve $-1 -1 $-1 -6.69592453481090306e-15 -132.1000000000000227 10 0 0 1 12.09999999999999964 0 0 1 I I #
face $118 -1 $-1 $119 $120 $5 $-1 $121 reversed single #
point $-1 -1 $-1 3.59999999999999698 -132.1000000000000227 10 #
coedge $-1 -1 $-1 $68 $122 $87 $123 forward $54 $-1 #
DXID-attrib $-1 -1 $-1 $-1 $57 @10 ASM ENTITY @36 89d2cf8c-06f2-47b6-b8b9-2fc63b402fbe #
face $124 -1 $-1 $125 $126 $5 $-1 $127 forward single #
loop $-1 -1 $-1 $-1 $128 $57 #
plane-surface $-1 -1 $-1 33.65000000000000568 -98.20000000000000284 10 0 1 0 -10 -0 -0 forward_v I I I I #
coedge $-1 -1 $-1 $88 $129 $130 $131 reversed $58 $-1 #
coedge $-1 -1 $-1 $87 $60 $70 $112 forward $35 $-1 #
coedge $-1 -1 $-1 $132 $133 $60 $86 reversed $134 $-1 #
edge $-1 -1 $-1 $94 5.11000000000000032 $135 6.100000000000000533 $85 $136 forward @7 unknown #
coedge $-1 -1 $-1 $61 $84 $78 $123 reversed $35 $-1 #
coedge $-1 -1 $-1 $137 $83 $61 $89 forward $58 $-1 #
edge $138 -1 $-1 $93 2.400000000000000355 $139 4.600000000000001421 $88 $140 forward @7 unknown #
coedge $-1 -1 $-1 $141 $62 $142 $143 reversed $92 $-1 #
coedge $-1 -1 $-1 $62 $144 $132 $145 reversed $92 $-1 #
loop $-1 -1 $-1 $-1 $90 $146 #
vertex $-1 -1 $-1 $63 $147 #
vertex $-1 -1 $-1 $63 $148 #
straight-curve $-1 -1 $-1 -16.05000000000000426 -122.2000000000000028 10 10 0 0 I I #
coedge $-1 -1 $-1 $104 $64 $149 $150 reversed $26 $-1 #
coedge $-1 -1 $-1 $151 $152 $64 $98 reversed $153 $-1 #
edge $-1 -1 $-1 $102 0.6049999999999997602 $154 2.605000000000001315 $97 $155 forward @7 unknown #
coedge $-1 -1 $-1 $156 $65 $71 $114 forward $101 $-1 #
coedge $-1 -1 $-1 $65 $156 $151 $157 reversed $101 $-1 #
loop $-1 -1 $-1 $-1 $65 $158 #
vertex $-1 -1 $-1 $66 $159 #
straight-curve $-1 -1 $-1 12.09999999999999254 -76.05000000000001137 10 0 10 0 I I #
coedge $-1 -1 $-1 $67 $96 $128 $160 reversed $26 $-1 #
coedge $-1 -1 $-1 $161 $162 $67 $106 forward $126 $-1 #
edge $163 -1 $-1 $109 0 $164 4.600000000000001421 $105 $165 forward @7 unknown #
coedge $-1 -1 $-1 $166 $68 $162 $167 forward $54 $-1 #
DXID-attrib $-1 -1 $-1 $-1 $69 @10 ASM ENTITY @36 90aadc23-9dde-481a-a890-80920f5aae7b #
vertex $-1 -1 $-1 $106 $168 #
straight-curve $-1 -1 $-1 -14.35000000000000497 -144.2000000000000171 10 10 0 0 F 0 F 4.800000000000000711 #
coedge $-1 -1 $-1 $113 $70 $133 $169 forward $72 $-1 #
edge $-1 -1 $-1 $135 -3.141592653589793116 $73 -1.570796326794896558 $70 $75 forward @7 unknown #
coedge $-1 -1 $-1 $71 $111 $170 $171 reversed $72 $-1 #
edge $172 -1 $-1 $74 0 $173 1 $71 $174 forward @7 tangent #
face $175 -1 $-1 $176 $72 $5 $-1 $177 reversed single #
point $-1 -1 $-1 -6.69592453481090306e-15 -144.2000000000000171 10 #
point $-1 -1 $-1 12.09999999999999254 -132.1000000000000227 10 #
DXID-attrib $-1 -1 $-1 $-1 $76 @10 ASM ENTITY @36 d36b5288-3924-46de-86d7-3d0586a6f4ea #
face $178 -1 $-1 $158 $153 $5 $-1 $179 reversed single #
loop $-1 -1 $-1 $51 $180 $76 #
cone-surface $-1 -1 $-1 -6.69592453481090306e-15 -132.1000000000000227 10 0 0 -1 3.600000000000003642 0 0 1 I I 0 1 3.600000000000003642 forward I I I I #
coedge $-1 -1 $-1 $78 $166 $137 $181 reversed $54 $-1 #
edge $182 -1 $-1 $139 0 $73 1.434999999999999831 $78 $110 forward @7 unknown #
DXID-attrib $-1 -1 $-1 $-1 $80 @10 ASM ENTITY @36 b27bf0ec-cf80-4413-9612-f30f7cda5ccb #
face $183 -1 $-1 $184 $185 $5 $-1 $186 forward single #
loop $-1 -1 $-1 $-1 $105 $80 #
plane-surface $-1 -1 $-1 33.65000000000000568 -144.2000000000000171 10 1 0 0 0 10 0 forward_v I I I I #
coedge $-1 -1 $-1 $187 $188 $104 $160 forward $81 $-1 #
coedge $-1 -1 $-1 $83 $189 $190 $191 reversed $58 $-1 #
coedge $-1 -1 $-1 $192 $142 $83 $131 forward $193 $-1 #
edge $-1 -1 $-1 $93 -6.310000000000000497 $194 -3.910000000000000142 $130 $195 forward @7 unknown #
coedge $-1 -1 $-1 $196 $85 $91 $145 forward $134 $-1 #
coedge $-1 -1 $-1 $85 $196 $111 $169 reversed $134 $-1 #
loop $-1 -1 $-1 $-1 $85 $176 #
vertex $-1 -1 $-1 $86 $197 #
straight-curve $-1 -1 $-1 -12.09999999999999254 -71.10000000000000853 10 -2.242874797222538314e-15 -10 0 I I #
coedge $-1 -1 $-1 $189 $88 $122 $181 forward $58 $-1 #
DXID-attrib $-1 -1 $-1 $-1 $89 @10 ASM ENTITY @36 b8bb31ff-cc98-467e-8071-2bf0fac0b039 #
vertex $-1 -1 $-1 $123 $198 #
straight-curve $-1 -1 $-1 -14.35000000000000675 -98.20000000000000284 10 4.827056628805027193e-16 -10 0 F 0 F 4.600000000000001421 #
coedge $-1 -1 $-1 $144 $90 $199 $200 reversed $92 $-1 #
coedge $-1 -1 $-1 $130 $201 $90 $143 forward $193 $-1 #
edge $-1 -1 $-1 $202 -1.605000000000000426 $93 0.1699999999999999289 $142 $95 forward @7 unknown #
coedge $-1 -1 $-1 $91 $141 $203 $204 reversed $92 $-1 #
edge $205 -1 $-1 $94 0 $206 1 $91 $207 forward @7 unknown #
face $208 -1 $-1 $209 $92 $5 $-1 $210 reversed single #
point $-1 -1 $-1 -14.35000000000000497 -122.2000000000000028 10 #
point $-1 -1 $-1 -12.10000000000000497 -122.2000000000000028 10 #
coedge $-1 -1 $-1 $211 $212 $96 $150 forward $213 $-1 #
edge $214 -1 $-1 $215 5.820000000000000284 $154 8.220000000000000639 $149 $216 forward @7 unknown #
coedge $-1 -1 $-1 $217 $97 $100 $157 forward $153 $-1 #
coedge $-1 -1 $-1 $97 $217 $211 $218 reversed $153 $-1 #
loop $-1 -1 $-1 $-1 $97 $119 #
vertex $-1 -1 $-1 $98 $219 #
straight-curve $-1 -1 $-1 6.049999999999995381 -122.2000000000000028 10 10 0 0 I I #
coedge $-1 -1 $-1 $100 $99 $220 $221 reversed $101 $-1 #
edge $222 -1 $-1 $102 0 $223 1 $100 $224 forward @7 unknown #
face $225 -1 $-1 $115 $101 $5 $-1 $226 reversed single #
point $-1 -1 $-1 12.09999999999999254 -122.2000000000000028 10 #
edge $227 -1 $-1 $164 -0 $215 0.1549999999999993605 $128 $228 forward @7 unknown #
coedge $-1 -1 $-1 $229 $105 $188 $230 forward $126 $-1 #
coedge $-1 -1 $-1 $105 $229 $107 $167 reversed $126 $-1 #
DXID-attrib $-1 -1 $-1 $-1 $106 @10 ASM ENTITY @36 3e4d964b-6264-446e-a472-2b3146cc00c0 #
vertex $-1 -1 $-1 $160 $231 #
straight-curve $-1 -1 $-1 33.65000000000000568 -144.2000000000000171 10 0 10 0 F 0 F 4.600000000000001421 #
coedge $-1 -1 $-1 $122 $107 $232 $233 reversed $54 $-1 #
edge $234 -1 $-1 $109 0 $235 5.252000000000000668 $162 $236 forward @7 unknown #
point $-1 -1 $-1 33.65000000000000568 -144.2000000000000171 10 #
edge $237 -1 $-1 $135 0 $238 1 $133 $239 forward @7 tangent #
coedge $-1 -1 $-1 $240 $220 $113 $171 forward $241 $-1 #
edge $-1 -1 $-1 $173 0 $238 3.141592653589793116 $170 $242 forward @7 unknown #
DXID-attrib $-1 -1 $-1 $-1 $114 @10 ASM ENTITY @36 efbfb0a2-1c56-479d-b9c3-eb66e8b979ea #
vertex $-1 -1 $-1 $114 $243 #
straight-curve $-1 -1 $-1 12.09999999999999254 -132.1000000000000227 10 0 0 -10 I I #
DXID-attrib $-1 -1 $-1 $-1 $115 @10 ASM ENTITY @36 c1868a03-580c-4941-b856-0261938cce1e #
face $244 -1 $-1 $146 $134 $5 $-1 $245 reversed single #
cone-surface $-1 -1 $-1 -6.69592453481090306e-15 -132.1000000000000227 10 0 0 -1 12.09999999999999964 0 0 1 I I 0 -1 12.09999999999999964 forward I I I I #
DXID-attrib $-1 -1 $-1 $-1 $119 @10 ASM ENTITY @36 618bf98d-9729-4c56-b7bb-502ffbe9c9d0 #
plane-surface $-1 -1 $-1 12.09999999999999076 -122.2000000000000028 10 0 1 0 10 0 0 forward_v I I I I #
coedge $-1 -1 $-1 $180 $180 $246 $247 reversed $120 $-1 #
edge $248 -1 $-1 $139 0 $249 5.252000000000000668 $137 $250 forward @7 unknown #
DXID-attrib $-1 -1 $-1 $-1 $123 @10 ASM ENTITY @36 90709d0e-35ed-4de9-ad52-9564724b187a #
DXID-attrib $-1 -1 $-1 $-1 $125 @10 ASM ENTITY @36 e167cfec-b3f1-46c0-a77f-ca1ae8a78994 #
face $251 -1 $-1 $76 $252 $5 $-1 $253 forward single #
loop $-1 -1 $-1 $-1 $254 $125 #
plane-surface $-1 -1 $-1 9.649999999999998579 -121.2000000000000171 62.52000000000001023 0 0 1 10 0 0 forward_v I I I I #
coedge $-1 -1 $-1 $190 $128 $192 $255 reversed $81 $-1 #
coedge $-1 -1 $-1 $128 $256 $161 $230 reversed $81 $-1 #
coedge $-1 -1 $-1 $129 $137 $257 $258 reversed $58 $-1 #
coedge $-1 -1 $-1 $256 $187 $129 $191 forward $81 $-1 #
edge $259 -1 $-1 $194 0 $260 5.252000000000000668 $190 $261 forward @7 unknown #
coedge $-1 -1 $-1 $262 $130 $187 $255 forward $193 $-1 #
loop $-1 -1 $-1 $-1 $130 $184 #
vertex $-1 -1 $-1 $131 $263 #
straight-curve $-1 -1 $-1 -14.35000000000000853 -59.10000000000000142 10 -4.827056628805027193e-16 10 0 I I #
coedge $-1 -1 $-1 $133 $132 $240 $264 reversed $134 $-1 #
point $-1 -1 $-1 -12.10000000000000675 -132.1000000000000227 10 #
point $-1 -1 $-1 -14.35000000000000497 -144.2000000000000171 10 #
coedge $-1 -1 $-1 $265 $266 $141 $200 forward $267 $-1 #
edge $-1 -1 $-1 $268 -1 $202 0 $199 $269 forward @7 unknown #
coedge $-1 -1 $-1 $142 $270 $265 $271 forward $193 $-1 #
vertex $-1 -1 $-1 $271 $272 #
coedge $-1 -1 $-1 $273 $240 $144 $204 forward $241 $-1 #
edge $-1 -1 $-1 $206 -0.3950000000000000178 $268 1.605000000000000426 $203 $274 forward @7 unknown #
DXID-attrib $-1 -1 $-1 $-1 $145 @10 ASM ENTITY @36 cf20f1b8-af3b-4065-8dc2-aa7e429d8500 #
vertex $-1 -1 $-1 $145 $275 #
straight-curve $-1 -1 $-1 -12.10000000000000497 -122.2000000000000028 10 0 0 -10 I I #
DXID-attrib $-1 -1 $-1 $-1 $146 @10 ASM ENTITY @36 a57ed793-c291-4a6c-8622-ce06e17ca863 #
face $276 -1 $-1 $277 $278 $5 $-1 $279 reversed single #
plane-surface $-1 -1 $-1 -32.10000000000000853 -122.2000000000000028 10 0 1 0 10 0 0 forward_v I I I I #
coedge $-1 -1 $-1 $280 $149 $152 $218 forward $213 $-1 #
coedge $-1 -1 $-1 $149 $281 $262 $282 forward $213 $-1 #
loop $-1 -1 $-1 $-1 $211 $283 #
DXID-attrib $-1 -1 $-1 $-1 $150 @10 ASM ENTITY @36 c12649a0-fa6d-4ddc-82fc-ec0fcb456162 #
vertex $-1 -1 $-1 $150 $284 #
straight-curve $-1 -1 $-1 32.10000000000000853 -40 10 0 -10 0 I I #
coedge $-1 -1 $-1 $152 $151 $285 $286 reversed $153 $-1 #
edge $-1 -1 $-1 $154 -0.5 $287 0.5 $211 $288 forward @7 unknown #
point $-1 -1 $-1 32.10000000000000853 -122.2000000000000028 10 #
coedge $-1 -1 $-1 $170 $285 $156 $221 forward $241 $-1 #
edge $-1 -1 $-1 $223 4.615000000000000213 $173 5.605000000000000426 $220 $289 forward @7 unknown #
DXID-attrib $-1 -1 $-1 $-1 $157 @10 ASM ENTITY @36 feecfa2d-bc64-4a40-8248-f44da4522347 #
vertex $-1 -1 $-1 $157 $290 #
straight-curve $-1 -1 $-1 12.09999999999999254 -122.2000000000000028 10 0 0 -10 I I #
DXID-attrib $-1 -1 $-1 $-1 $158 @10 ASM ENTITY @36 69739763-314d-4098-a0cd-3052576f79cc #
plane-surface $-1 -1 $-1 12.09999999999999254 -132.1000000000000227 10 -1 0 0 0 10 0 forward_v I I I I #
DXID-attrib $-1 -1 $-1 $-1 $160 @10 ASM ENTITY @36 e7957dcc-a3c5-4229-8885-9a15efeb21cd #
straight-curve $-1 -1 $-1 33.65000000000000568 -98.20000000000000284 10 -10 -0 -0 F -0 F 4.800000000000000711 #
coedge $-1 -1 $-1 $162 $161 $254 $291 reversed $126 $-1 #
edge $292 -1 $-1 $164 0 $293 5.252000000000000668 $161 $294 forward @7 unknown #
point $-1 -1 $-1 33.65000000000000568 -98.20000000000000284 10 #
coedge $-1 -1 $-1 $254 $257 $166 $233 forward $185 $-1 #
edge $295 -1 $-1 $249 0 $235 4.800000000000000711 $166 $296 forward @7 unknown #
DXID-attrib $-1 -1 $-1 $-1 $167 @10 ASM ENTITY @36 9fbb64bf-cf87-4df7-9375-64a809318909 #
vertex $-1 -1 $-1 $167 $297 #
straight-curve $-1 -1 $-1 33.65000000000000568 -144.2000000000000171 10 0 0 10 I I #
DXID-attrib $-1 -1 $-1 $-1 $169 @10 ASM ENTITY @36 4709de95-769d-44da-8dce-5731645fd0db #
vertex $-1 -1 $-1 $169 $298 #
straight-curve $-1 -1 $-1 -12.10000000000000675 -132.1000000000000227 10 0 0 -10 I I #
coedge $-1 -1 $-1 $203 $170 $196 $264 forward $241 $-1 #
loop $-1 -1 $-1 $-1 $285 $299 #
ellipse-curve $-1 -1 $-1 -6.69592453481090306e-15 -132.1000000000000227 0 -0 -0 -1 12.09999999999999964 0 0 1 I I #
point $-1 -1 $-1 12.09999999999999254 -132.1000000000000227 0 #
DXID-attrib $-1 -1 $-1 $-1 $176 @10 ASM ENTITY @36 5a146137-a743-4e48-90fe-d9b16474473e #
plane-surface $-1 -1 $-1 -12.10000000000000497 -122.2000000000000028 10 1 -2.242874797222538117e-16 0 -2.242874797222538314e-15 -10 -0 forward_v I I I I #
coedge $-1 -1 $-1 $246 $246 $180 $247 forward $300 $-1 #
edge $-1 -1 $-1 $301 0 $301 6.283185307179586232 $246 $302 forward @7 unknown #
DXID-attrib $-1 -1 $-1 $-1 $181 @10 ASM ENTITY @36 347b7394-619c-4f28-8d9d-3a2cae791702 #
vertex $-1 -1 $-1 $233 $303 #
straight-curve $-1 -1 $-1 -14.35000000000000497 -144.2000000000000171 10 0 0 10 I I #
DXID-attrib $-1 -1 $-1 $-1 $184 @10 ASM ENTITY @36 dffeb37f-316f-4ba6-8bc2-bf61514690eb #
loop $-1 -1 $-1 $304 $305 $184 #
plane-surface $-1 -1 $-1 0 -20 10 0 0 1 10 0 0 forward_v I I I I #
coedge $-1 -1 $-1 $306 $232 $229 $291 forward $185 $-1 #
edge $-1 -1 $-1 $194 -3.117500000000000604 $215 1.527500000000000746 $192 $307 forward @7 unknown #
coedge $-1 -1 $-1 $188 $190 $306 $308 reversed $81 $-1 #
coedge $-1 -1 $-1 $232 $306 $189 $258 forward $185 $-1 #
edge $309 -1 $-1 $260 0 $249 4.600000000000001421 $189 $310 forward @7 unknown #
DXID-attrib $-1 -1 $-1 $-1 $191 @10 ASM ENTITY @36 9c8bb947-3819-403e-b3fa-e6c54276b4bb #
vertex $-1 -1 $-1 $258 $311 #
straight-curve $-1 -1 $-1 -14.35000000000000675 -98.20000000000000284 10 0 0 10 I I #
coedge $-1 -1 $-1 $312 $192 $212 $282 reversed $193 $-1 #
point $-1 -1 $-1 -14.35000000000000675 -98.20000000000000284 10 #
edge $-1 -1 $-1 $238 -6.100000000000000533 $206 -5.11000000000000032 $240 $313 forward @7 unknown #
coedge $-1 -1 $-1 $314 $199 $201 $271 reversed $267 $-1 #
coedge $-1 -1 $-1 $199 $314 $273 $315 forward $267 $-1 #
loop $-1 -1 $-1 $-1 $199 $316 #
vertex $-1 -1 $-1 $200 $317 #
straight-curve $-1 -1 $-1 -32.10000000000000853 -122.1999999999999886 10 0 0 10 I I #
coedge $-1 -1 $-1 $201 $318 $319 $320 forward $193 $-1 #
edge $321 -1 $-1 $322 0 $202 8.220000000000000639 $201 $323 forward @7 unknown #
point $-1 -1 $-1 -32.10000000000000853 -122.2000000000000028 10 #
coedge $-1 -1 $-1 $324 $203 $266 $315 reversed $241 $-1 #
straight-curve $-1 -1 $-1 -16.05000000000000426 -122.2000000000000028 0 -10 0 0 I I #
point $-1 -1 $-1 -12.10000000000000497 -122.2000000000000028 0 #
DXID-attrib $-1 -1 $-1 $-1 $209 @10 ASM ENTITY @36 49c42eb1-96a6-4775-bca3-0b57712ffdff #
face $325 -1 $-1 $299 $326 $5 $-1 $327 reversed single #
loop $-1 -1 $-1 $328 $329 $209 #
cone-surface $-1 -1 $-1 20.35000000000002274 -91.59999999999999432 10 0 0 -1 2.600000000000001421 0 0 1 I I 0 1 2.600000000000001421 forward I I I I #
coedge $-1 -1 $-1 $281 $211 $330 $331 reversed $213 $-1 #
coedge $-1 -1 $-1 $212 $280 $332 $333 forward $213 $-1 #
edge $334 -1 $-1 $335 0 $215 5.820000000000000284 $212 $216 forward @7 unknown #
face $336 -1 $-1 $337 $213 $5 $-1 $338 forward single #
point $-1 -1 $-1 32.10000000000000853 -98.20000000000000284 10 #
coedge $-1 -1 $-1 $220 $330 $217 $286 forward $241 $-1 #
edge $-1 -1 $-1 $287 -2.605000000000001315 $223 -0.6049999999999997602 $285 $339 forward @7 unknown #
vertex $-1 -1 $-1 $286 $340 #
straight-curve $-1 -1 $-1 32.10000000000000853 -122.1999999999999886 5 0 0 -10 I I #
straight-curve $-1 -1 $-1 12.09999999999999254 -76.05000000000001137 0 0 -10 0 I I #
point $-1 -1 $-1 12.09999999999999254 -122.2000000000000028 0 #
edge $341 -1 $-1 $235 0 $293 4.600000000000001421 $229 $342 forward @7 unknown #
DXID-attrib $-1 -1 $-1 $-1 $230 @10 ASM ENTITY @36 20031f9d-5bb9-4f86-88e5-05f06ec1c91d #
vertex $-1 -1 $-1 $308 $343 #
straight-curve $-1 -1 $-1 33.65000000000000568 -98.20000000000000284 10 0 0 10 I I #
DXID-attrib $-1 -1 $-1 $-1 $233 @10 ASM ENTITY @36 d11d6e1f-48eb-4dc6-ae9b-29c2ec99b2d5 #
straight-curve $-1 -1 $-1 -14.35000000000000497 -144.2000000000000171 62.52000000000001023 10 0 0 I I #
point $-1 -1 $-1 33.65000000000000568 -144.2000000000000171 62.52000000000001023 #
point $-1 -1 $-1 -12.10000000000000675 -132.1000000000000227 0 #
face $344 -1 $-1 $345 $346 $5 $-1 $347 reversed single #
loop $-1 -1 $-1 $241 $246 $299 #
vertex $-1 -1 $-1 $247 $348 #
ellipse-curve $-1 -1 $-1 -6.69592453481090306e-15 -132.1000000000000227 0 0 0 1 3.600000000000003642 0 0 1 I I #
point $-1 -1 $-1 -14.35000000000000497 -144.2000000000000171 62.52000000000001023 #
loop $-1 -1 $-1 $349 $350 $184 #
coedge $-1 -1 $-1 $305 $305 $351 $352 forward $252 $-1 #
coedge $-1 -1 $-1 $257 $254 $256 $308 forward $185 $-1 #
straight-curve $-1 -1 $-1 16.82500000000000284 -98.20000000000000284 10 10 0 0 I I #
edge $353 -1 $-1 $293 -0 $260 4.800000000000000711 $256 $354 forward @7 unknown #
DXID-attrib $-1 -1 $-1 $-1 $258 @10 ASM ENTITY @36 e69526a5-f618-4a69-b7c8-cf67d06bc3f3 #
straight-curve $-1 -1 $-1 -14.35000000000000675 -98.20000000000000284 62.52000000000001023 4.827056628805027193e-16 -10 0 I I #
point $-1 -1 $-1 -14.35000000000000497 -98.20000000000000284 62.52000000000001023 #
coedge $-1 -1 $-1 $355 $262 $356 $357 forward $193 $-1 #
straight-curve $-1 -1 $-1 -12.09999999999999254 -71.10000000000000853 0 2.242874797222538314e-15 10 0 I I #
coedge $-1 -1 $-1 $266 $265 $358 $359 forward $267 $-1 #
edge $360 -1 $-1 $361 0 $268 8.220000000000000639 $273 $362 forward @7 unknown #
face $363 -1 $-1 $283 $267 $5 $-1 $364 forward single #
point $-1 -1 $-1 -32.10000000000000853 -122.2000000000000028 0 #
coedge $-1 -1 $-1 $270 $365 $366 $367 forward $193 $-1 #
coedge $-1 -1 $-1 $368 $358 $270 $320 reversed $369 $-1 #
edge $370 -1 $-1 $371 4.460000000000000853 $322 6.420000000000001705 $270 $372 forward @7 unknown #
DXID-attrib $-1 -1 $-1 $-1 $271 @10 ASM ENTITY @36 883f3789-773e-4eed-90c3-4a0fb80835c1 #
vertex $-1 -1 $-1 $320 $373 #
straight-curve $-1 -1 $-1 -32.10000000000000853 -40 10 0 -10 0 I I #
coedge $-1 -1 $-1 $374 $273 $375 $376 forward $241 $-1 #
DXID-attrib $-1 -1 $-1 $-1 $277 @10 ASM ENTITY @36 dafe16b0-26c4-406e-bd7f-d974cf2cd0b3 #
loop $-1 -1 $-1 $377 $378 $277 #
cone-surface $-1 -1 $-1 -20.35000000000000497 -91.59999999999999432 10 0 0 -1 2.600000000000000089 0 0 1 I I 0 1 2.600000000000000089 forward I I I I #
loop $-1 -1 $-1 $-1 $379 $209 #
coedge $-1 -1 $-1 $329 $329 $380 $381 reversed $278 $-1 #
coedge $-1 -1 $-1 $285 $382 $280 $331 forward $241 $-1 #
edge $383 -1 $-1 $384 0 $287 8.220000000000000639 $330 $385 forward @7 unknown #
coedge $-1 -1 $-1 $386 $356 $281 $333 reversed $387 $-1 #
edge $388 -1 $-1 $384 0 $335 1 $281 $389 forward @7 unknown #
DXID-attrib $-1 -1 $-1 $-1 $282 @10 ASM ENTITY @36 007e0599-754e-46c0-ac33-2ecf21da581d #
vertex $-1 -1 $-1 $282 $390 #
DXID-attrib $-1 -1 $-1 $-1 $283 @10 ASM ENTITY @36 fa6821d2-bd11-4eeb-a990-9fe0cf225a8c #
face $391 -1 $-1 $392 $387 $5 $-1 $393 reversed single #
plane-surface $-1 -1 $-1 32.10000000000000853 -40 0 1 0 0 0 0 10 forward_v I I I I #
straight-curve $-1 -1 $-1 6.049999999999995381 -122.2000000000000028 0 -10 0 0 I I #
point $-1 -1 $-1 32.10000000000000853 -122.2000000000000028 0 #
DXID-attrib $-1 -1 $-1 $-1 $291 @10 ASM ENTITY @36 31b18310-0729-436b-abf1-def5cfb3f143 #
straight-curve $-1 -1 $-1 33.65000000000000568 -144.2000000000000171 62.52000000000001023 0 10 0 I I #
point $-1 -1 $-1 33.65000000000000568 -98.20000000000000284 62.52000000000001023 #
DXID-attrib $-1 -1 $-1 $-1 $299 @10 ASM ENTITY @36 fa45c446-cf09-4825-954c-c3a44cec829c #
face $394 -1 $-1 $316 $369 $5 $-1 $393 reversed single #
loop $-1 -1 $-1 $395 $396 $299 #
plane-surface $-1 -1 $-1 0 -20 0 0 0 1 10 0 0 forward_v I I I I #
point $-1 -1 $-1 3.59999999999999698 -132.1000000000000227 0 #
loop $-1 -1 $-1 $397 $398 $184 #
coedge $-1 -1 $-1 $350 $350 $399 $400 forward $304 $-1 #
coedge $-1 -1 $-1 $351 $351 $305 $352 reversed $401 $-1 #
edge $402 -1 $-1 $403 -3.141592653589793116 $403 3.141592653589793116 $351 $404 forward @7 unknown #
DXID-attrib $-1 -1 $-1 $-1 $308 @10 ASM ENTITY @36 5e84a435-a052-4ca3-9a0a-b455d8872b96 #
straight-curve $-1 -1 $-1 33.65000000000000568 -98.20000000000000284 62.52000000000001023 -10 -0 -0 I I #
coedge $-1 -1 $-1 $365 $312 $405 $406 forward $193 $-1 #
coedge $-1 -1 $-1 $332 $407 $312 $357 reversed $387 $-1 #
edge $408 -1 $-1 $335 -0 $409 1.960000000000000853 $312 $372 forward @7 unknown #
coedge $-1 -1 $-1 $319 $375 $314 $359 reversed $369 $-1 #
edge $410 -1 $-1 $322 -0 $361 1 $314 $411 forward @7 unknown #
DXID-attrib $-1 -1 $-1 $-1 $315 @10 ASM ENTITY @36 a2153652-2a44-42fe-b7b9-ebddadae0395 #
vertex $-1 -1 $-1 $315 $412 #
straight-curve $-1 -1 $-1 -32.10000000000000853 -40 0 0 -10 0 I I #
DXID-attrib $-1 -1 $-1 $-1 $316 @10 ASM ENTITY @36 a361c317-ec35-4fb4-b9da-746c1f71c57b #
plane-surface $-1 -1 $-1 -32.10000000000000853 -40 10 -1 0 0 -0 -0 -10 forward_v I I I I #
coedge $-1 -1 $-1 $318 $355 $413 $414 forward $193 $-1 #
coedge $-1 -1 $-1 $415 $416 $318 $367 reversed $417 $-1 #
edge $418 -1 $-1 $419 0 $371 4 $366 $420 forward @7 unknown #
coedge $-1 -1 $-1 $375 $319 $416 $421 reversed $369 $-1 #
loop $-1 -1 $-1 $-1 $368 $345 #
DXID-attrib $-1 -1 $-1 $-1 $320 @10 ASM ENTITY @36 ec8fd7c5-a901-4a97-9f17-2495195d3ae7 #
vertex $-1 -1 $-1 $367 $422 #
straight-curve $-1 -1 $-1 32.10000000000000853 -40 10 -10 -0 -0 F -0 F 6.420000000000001705 #
point $-1 -1 $-1 -32.10000000000000853 -40 10 #
coedge $-1 -1 $-1 $423 $324 $424 $425 reversed $241 $-1 #
coedge $-1 -1 $-1 $358 $368 $324 $376 reversed $369 $-1 #
edge $426 -1 $-1 $361 0 $427 1.960000000000000853 $324 $428 forward @7 unknown #
loop $-1 -1 $-1 $-1 $429 $277 #
coedge $-1 -1 $-1 $378 $378 $430 $431 reversed $326 $-1 #
coedge $-1 -1 $-1 $379 $379 $432 $433 reversed $328 $-1 #
coedge $-1 -1 $-1 $380 $380 $329 $381 forward $434 $-1 #
edge $-1 -1 $-1 $435 0 $435 6.283185307179586232 $380 $436 forward @7 unknown #
coedge $-1 -1 $-1 $330 $437 $386 $438 forward $241 $-1 #
DXID-attrib $-1 -1 $-1 $-1 $331 @10 ASM ENTITY @36 cff13de3-1721-4108-b8a0-effe57baca0f #
vertex $-1 -1 $-1 $438 $439 #
straight-curve $-1 -1 $-1 32.10000000000000853 -40 0 0 -10 0 I I #
coedge $-1 -1 $-1 $407 $332 $382 $438 reversed $387 $-1 #
loop $-1 -1 $-1 $-1 $407 $337 #
DXID-attrib $-1 -1 $-1 $-1 $333 @10 ASM ENTITY @36 bbe24afb-1f3c-4cdc-b9b8-9e2485dfb783 #
straight-curve $-1 -1 $-1 32.10000000000000853 -40 0 0 0 10 F 0 F 1 #
point $-1 -1 $-1 32.10000000000000853 -40 10 #
DXID-attrib $-1 -1 $-1 $-1 $337 @10 ASM ENTITY @36 a653302b-6679-49a2-befb-06affd5b6d31 #
face $440 -1 $-1 $441 $401 $5 $-1 $442 forward single #
plane-surface $-1 -1 $-1 0 -40 5 0 -1 0 0 0 -10 forward_v I I I I #
DXID-attrib $-1 -1 $-1 $-1 $345 @10 ASM ENTITY @36 044f93bf-9c16-43a4-a6c1-8a566a15e2f0 #
loop $-1 -1 $-1 $443 $444 $299 #
coedge $-1 -1 $-1 $396 $396 $445 $446 reversed $346 $-1 #
loop $-1 -1 $-1 $447 $448 $184 #
coedge $-1 -1 $-1 $398 $398 $449 $450 forward $349 $-1 #
coedge $-1 -1 $-1 $399 $399 $350 $400 reversed $451 $-1 #
edge $452 -1 $-1 $453 -3.141592653589793116 $453 3.141592653589793116 $399 $454 forward @7 unknown #
loop $-1 -1 $-1 $455 $351 $392 #
DXID-attrib $-1 -1 $-1 $-1 $352 @10 ASM ENTITY @36 5565d755-ea30-4af4-bdf0-f95f854f49b3 #
vertex $-1 -1 $-1 $352 $456 #
ellipse-curve $-1 -1 $-1 6.5 -10 10 0 0 -1 -3.100000000000000533 -0 -0 1 I I #
coedge $-1 -1 $-1 $457 $458 $355 $406 reversed $459 $-1 #
edge $460 -1 $-1 $409 0 $461 4 $405 $462 forward @7 unknown #
coedge $-1 -1 $-1 $356 $386 $457 $463 forward $387 $-1 #
DXID-attrib $-1 -1 $-1 $-1 $357 @10 ASM ENTITY @36 3359b0c5-8504-4aee-9049-697881fd4eae #
vertex $-1 -1 $-1 $357 $464 #
DXID-attrib $-1 -1 $-1 $-1 $359 @10 ASM ENTITY @36 b0459fa6-387c-4c6f-8ae3-39ac4c2c6717 #
straight-curve $-1 -1 $-1 -32.10000000000000853 -40 10 -0 -0 -10 F -0 F 1 #
point $-1 -1 $-1 -32.10000000000000853 -40 0 #
coedge $-1 -1 $-1 $465 $466 $365 $414 reversed $467 $-1 #
edge $468 -1 $-1 $461 -0 $419 2.5 $413 $469 forward @7 unknown #
coedge $-1 -1 $-1 $424 $366 $466 $470 reversed $417 $-1 #
coedge $-1 -1 $-1 $366 $424 $368 $421 forward $417 $-1 #
loop $-1 -1 $-1 $-1 $424 $471 #
DXID-attrib $-1 -1 $-1 $-1 $367 @10 ASM ENTITY @36 498e7f42-204a-460e-a7b4-497ca7b88884 #
vertex $-1 -1 $-1 $414 $472 #
straight-curve $-1 -1 $-1 -12.5 0 10 0 -10 0 I I #
edge $473 -1 $-1 $427 0 $371 1 $416 $474 forward @7 unknown #
point $-1 -1 $-1 -12.5 -40 10 #
coedge $-1 -1 $-1 $437 $374 $475 $476 reversed $241 $-1 #
coedge $-1 -1 $-1 $416 $415 $374 $425 forward $417 $-1 #
edge $477 -1 $-1 $478 0 $427 4 $424 $479 forward @7 unknown #
DXID-attrib $-1 -1 $-1 $-1 $376 @10 ASM ENTITY @36 1d01b6f0-af5b-4c3b-a1ac-8cc6bdcb1ead #
vertex $-1 -1 $-1 $376 $480 #
straight-curve $-1 -1 $-1 -32.10000000000000853 -40 0 10 0 0 F 0 F 6.420000000000001705 #
coedge $-1 -1 $-1 $429 $429 $481 $482 reversed $377 $-1 #
coedge $-1 -1 $-1 $430 $430 $378 $431 forward $483 $-1 #
edge $-1 -1 $-1 $484 0 $484 6.283185307179586232 $430 $485 forward @7 unknown #
coedge $-1 -1 $-1 $432 $432 $379 $433 forward $486 $-1 #
edge $-1 -1 $-1 $487 0 $487 6.283185307179586232 $432 $488 forward @7 unknown #
loop $-1 -1 $-1 $300 $380 $299 #
vertex $-1 -1 $-1 $381 $489 #
ellipse-curve $-1 -1 $-1 20.35000000000002274 -91.59999999999999432 0 0 0 1 2.600000000000001421 0 0 1 I I #
coedge $-1 -1 $-1 $382 $423 $490 $491 reversed $241 $-1 #
edge $492 -1 $-1 $493 4.460000000000000853 $384 6.420000000000001705 $382 $428 forward @7 unknown #
point $-1 -1 $-1 32.10000000000000853 -40 0 #
DXID-attrib $-1 -1 $-1 $-1 $392 @10 ASM ENTITY @36 b8996766-a5a1-4bb0-a397-d096b561a283 #
face $494 -1 $-1 $495 $451 $5 $-1 $496 forward single #
cone-surface $-1 -1 $-1 6.5 -10 0 0 0 1 -3.100000000000000533 0 0 1 I I 0 -1 3.100000000000000533 forward I I I I #
loop $-1 -1 $-1 $497 $498 $299 #
coedge $-1 -1 $-1 $444 $444 $499 $500 reversed $395 $-1 #
coedge $-1 -1 $-1 $445 $445 $396 $446 forward $455 $-1 #
edge $501 -1 $-1 $502 -3.141592653589793116 $502 3.141592653589793116 $445 $503 forward @7 unknown #
loop $-1 -1 $-1 $486 $481 $184 #
coedge $-1 -1 $-1 $448 $448 $504 $505 forward $397 $-1 #
coedge $-1 -1 $-1 $449 $449 $398 $450 reversed $506 $-1 #
edge $507 -1 $-1 $508 -3.141592653589793116 $508 3.141592653589793116 $449 $509 forward @7 unknown #
loop $-1 -1 $-1 $510 $399 $441 #
DXID-attrib $-1 -1 $-1 $-1 $400 @10 ASM ENTITY @36 831c8d74-1ac5-4f78-af01-fe005446f908 #
vertex $-1 -1 $-1 $400 $511 #
ellipse-curve $-1 -1 $-1 -6 -10 10 0 0 -1 -3.100000000000000089 -0 -0 1 I I #
loop $-1 -1 $-1 $-1 $445 $392 #
point $-1 -1 $-1 9.599999999999999645 -10 10 #
coedge $-1 -1 $-1 $490 $405 $407 $463 reversed $459 $-1 #
coedge $-1 -1 $-1 $405 $490 $465 $512 forward $459 $-1 #
loop $-1 -1 $-1 $-1 $490 $513 #
DXID-attrib $-1 -1 $-1 $-1 $406 @10 ASM ENTITY @36 900ca854-d3ae-4807-bd9d-8a06e80f205f #
vertex $-1 -1 $-1 $406 $514 #
straight-curve $-1 -1 $-1 12.5 -40 10 0 10 0 I I #
edge $515 -1 $-1 $493 0 $409 1 $457 $516 forward @7 unknown #
point $-1 -1 $-1 12.5 -40 10 #
coedge $-1 -1 $-1 $475 $413 $458 $512 reversed $467 $-1 #
coedge $-1 -1 $-1 $413 $475 $415 $470 forward $467 $-1 #
loop $-1 -1 $-1 $-1 $475 $517 #
DXID-attrib $-1 -1 $-1 $-1 $414 @10 ASM ENTITY @36 61313c1f-48e1-4ccd-8d70-8321c7927426 #
straight-curve $-1 -1 $-1 12.5 0 10 -10 -0 -0 I I #
edge $518 -1 $-1 $478 0 $419 1 $415 $519 forward @7 unknown #
face $520 -1 $-1 $-1 $417 $5 $-1 $521 forward single #
point $-1 -1 $-1 -12.5 0 10 #
DXID-attrib $-1 -1 $-1 $-1 $421 @10 ASM ENTITY @36 5d4ac356-f41c-41e7-a8fe-5b45210d1bf2 #
straight-curve $-1 -1 $-1 -12.5 -40 0 0 0 10 I I #
coedge $-1 -1 $-1 $466 $465 $423 $476 forward $467 $-1 #
edge $522 -1 $-1 $523 -0 $478 2.5 $475 $524 forward @7 unknown #
DXID-attrib $-1 -1 $-1 $-1 $425 @10 ASM ENTITY @36 9f28e17f-7614-48aa-b4cc-f6861805f1e6 #
vertex $-1 -1 $-1 $425 $525 #
straight-curve $-1 -1 $-1 -12.5 0 0 0 -10 0 F 0 F 4 #
point $-1 -1 $-1 -12.5 -40 0 #
coedge $-1 -1 $-1 $481 $481 $429 $482 forward $447 $-1 #
edge $-1 -1 $-1 $526 0 $526 6.283185307179586232 $481 $527 forward @7 unknown #
loop $-1 -1 $-1 $434 $430 $299 #
vertex $-1 -1 $-1 $431 $528 #
ellipse-curve $-1 -1 $-1 -20.35000000000000497 -91.59999999999999432 0 0 0 1 2.600000000000000089 0 0 1 I I #
loop $-1 -1 $-1 $193 $432 $184 #
vertex $-1 -1 $-1 $433 $529 #
ellipse-curve $-1 -1 $-1 20.35000000000002274 -91.59999999999999432 10 -0 -0 -1 2.600000000000001421 0 0 1 I I #
point $-1 -1 $-1 22.95000000000002416 -91.59999999999999432 0 #
coedge $-1 -1 $-1 $458 $457 $437 $491 forward $459 $-1 #
edge $530 -1 $-1 $493 0 $523 4 $490 $531 forward @7 unknown #
DXID-attrib $-1 -1 $-1 $-1 $438 @10 ASM ENTITY @36 f67fae72-9c44-4239-b934-0fa845f79279 #
vertex $-1 -1 $-1 $491 $532 #
DXID-attrib $-1 -1 $-1 $-1 $441 @10 ASM ENTITY @36 3f0ee044-cca0-4673-8aa5-5058a9dc48b4 #
face $533 -1 $-1 $534 $506 $5 $-1 $535 forward single #
cone-surface $-1 -1 $-1 -6 -10 0 0 0 1 -3.100000000000000089 0 0 1 I I 0 -1 3.100000000000000089 forward I I I I #
loop $-1 -1 $-1 $483 $536 $299 #
coedge $-1 -1 $-1 $498 $498 $537 $538 reversed $443 $-1 #
coedge $-1 -1 $-1 $499 $499 $444 $500 forward $510 $-1 #
edge $539 -1 $-1 $540 -3.141592653589793116 $540 3.141592653589793116 $499 $541 forward @7 unknown #
DXID-attrib $-1 -1 $-1 $-1 $446 @10 ASM ENTITY @36 cf8471a1-fd28-40a4-81bc-33a5042c21e9 #
vertex $-1 -1 $-1 $446 $542 #
ellipse-curve $-1 -1 $-1 6.5 -10 0 0 0 -1 -3.100000000000000533 -0 -0 1 I I #
coedge $-1 -1 $-1 $504 $504 $448 $505 reversed $543 $-1 #
edge $544 -1 $-1 $545 -3.141592653589793116 $545 3.141592653589793116 $504 $546 forward @7 unknown #
loop $-1 -1 $-1 $547 $449 $495 #
DXID-attrib $-1 -1 $-1 $-1 $450 @10 ASM ENTITY @36 59bdcca8-0ac0-49b9-8bf6-f9e884bad3a9 #
vertex $-1 -1 $-1 $450 $548 #
ellipse-curve $-1 -1 $-1 6.5 -30 10 0 0 -1 -3.100000000000000533 -0 -0 1 I I #
loop $-1 -1 $-1 $-1 $499 $441 #
point $-1 -1 $-1 -2.900000000000000355 -10 10 #
edge $549 -1 $-1 $523 0 $461 1 $458 $550 forward @7 unknown #
face $551 -1 $-1 $471 $459 $5 $-1 $552 forward single #
point $-1 -1 $-1 12.5 0 10 #
DXID-attrib $-1 -1 $-1 $-1 $463 @10 ASM ENTITY @36 4dead2fa-2f27-4f7e-a062-ddfec27178e0 #
straight-curve $-1 -1 $-1 12.5 -40 0 0 0 10 I I #
face $553 -1 $-1 $513 $467 $5 $-1 $554 forward single #
DXID-attrib $-1 -1 $-1 $-1 $470 @10 ASM ENTITY @36 d08f65f6-c909-420f-89b0-2ebab2cba27f #
straight-curve $-1 -1 $-1 -12.5 0 0 0 0 10 I I #
DXID-attrib $-1 -1 $-1 $-1 $471 @10 ASM ENTITY @36 a73c74d9-1fd3-43ec-bec1-31941e1eb7c3 #
plane-surface $-1 -1 $-1 -12.5 0 0 -1 0 0 0 -10 0 forward_v I I I I #
DXID-attrib $-1 -1 $-1 $-1 $476 @10 ASM ENTITY @36 195a5961-66c5-462a-9b24-4287e05903ad #
vertex $-1 -1 $-1 $476 $555 #
straight-curve $-1 -1 $-1 12.5 0 0 -10 -0 -0 F -0 F 2.5 #
point $-1 -1 $-1 -12.5 0 0 #
vertex $-1 -1 $-1 $482 $556 #
ellipse-curve $-1 -1 $-1 -20.35000000000000497 -91.59999999999999432 10 -0 -0 -1 2.600000000000000089 0 0 1 I I #
point $-1 -1 $-1 -17.75000000000000711 -91.59999999999999432 0 #
point $-1 -1 $-1 22.95000000000002416 -91.59999999999999432 10 #
DXID-attrib $-1 -1 $-1 $-1 $491 @10 ASM ENTITY @36 f769182e-1dbd-42fd-ac7e-0637ca4de6be #
straight-curve $-1 -1 $-1 12.5 -40 0 0 10 0 F 0 F 4 #
point $-1 -1 $-1 12.5 -40 0 #
DXID-attrib $-1 -1 $-1 $-1 $495 @10 ASM ENTITY @36 65f2b109-cd23-4310-b3d6-f020df622a00 #
face $557 -1 $-1 $517 $543 $5 $-1 $558 forward single #
cone-surface $-1 -1 $-1 6.5 -30 0 0 0 1 -3.100000000000000533 0 0 1 I I 0 -1 3.100000000000000533 forward I I I I #
coedge $-1 -1 $-1 $536 $536 $559 $560 reversed $497 $-1 #
coedge $-1 -1 $-1 $537 $537 $498 $538 forward $547 $-1 #
edge $561 -1 $-1 $562 -3.141592653589793116 $562 3.141592653589793116 $537 $563 forward @7 unknown #
DXID-attrib $-1 -1 $-1 $-1 $500 @10 ASM ENTITY @36 146daab2-c9f3-4fe2-a8c4-046a1eaf81fd #
vertex $-1 -1 $-1 $500 $564 #
ellipse-curve $-1 -1 $-1 -6 -10 0 0 0 -1 -3.100000000000000089 -0 -0 1 I I #
point $-1 -1 $-1 9.600000000000001421 -10 0 #
loop $-1 -1 $-1 $565 $504 $534 #
DXID-attrib $-1 -1 $-1 $-1 $505 @10 ASM ENTITY @36 e8ebd2cb-5e93-49c8-a0bc-9cf63c4f5fda #
vertex $-1 -1 $-1 $505 $566 #
ellipse-curve $-1 -1 $-1 -6 -30 10 0 0 -1 -3.100000000000000089 -0 -0 1 I I #
loop $-1 -1 $-1 $-1 $537 $495 #
point $-1 -1 $-1 9.599999999999999645 -30 10 #
DXID-attrib $-1 -1 $-1 $-1 $512 @10 ASM ENTITY @36 56762ade-6044-4cac-9c52-d09341871255 #
straight-curve $-1 -1 $-1 12.5 0 0 0 0 10 I I #
DXID-attrib $-1 -1 $-1 $-1 $513 @10 ASM ENTITY @36 05d75195-1ba3-4fcc-9f16-6d3c9bb5bdf9 #
plane-surface $-1 -1 $-1 12.5 -40 0 1 0 0 0 10 0 forward_v I I I I #
DXID-attrib $-1 -1 $-1 $-1 $517 @10 ASM ENTITY @36 c5155e19-d5a6-4ea7-b52b-6d631d0113a7 #
plane-surface $-1 -1 $-1 12.5 0 0 0 1 0 -10 -0 -0 forward_v I I I I #
point $-1 -1 $-1 12.5 0 0 #
point $-1 -1 $-1 -17.75000000000000711 -91.59999999999999432 10 #
DXID-attrib $-1 -1 $-1 $-1 $534 @10 ASM ENTITY @36 d6a9cf90-731f-40ed-98a2-10e5847e78e2 #
cone-surface $-1 -1 $-1 -6 -30 0 0 0 1 -3.100000000000000089 0 0 1 I I 0 -1 3.100000000000000089 forward I I I I #
coedge $-1 -1 $-1 $559 $559 $536 $560 forward $565 $-1 #
edge $567 -1 $-1 $568 -3.141592653589793116 $568 3.141592653589793116 $559 $569 forward @7 unknown #
DXID-attrib $-1 -1 $-1 $-1 $538 @10 ASM ENTITY @36 1e8c88d8-0ffa-4dc2-9d26-d633fd500c56 #
vertex $-1 -1 $-1 $538 $570 #
ellipse-curve $-1 -1 $-1 6.5 -30 0 0 0 -1 -3.100000000000000533 -0 -0 1 I I #
point $-1 -1 $-1 -2.899999999999999911 -10 0 #
loop $-1 -1 $-1 $-1 $559 $534 #
point $-1 -1 $-1 -2.900000000000000355 -30 10 #
DXID-attrib $-1 -1 $-1 $-1 $560 @10 ASM ENTITY @36 c1f4af34-a1ce-4f93-a511-146e6acdcbeb #
vertex $-1 -1 $-1 $560 $571 #
ellipse-curve $-1 -1 $-1 -6 -30 0 0 0 -1 -3.100000000000000089 -0 -0 1 I I #
point $-1 -1 $-1 9.600000000000001421 -30 0 #
point $-1 -1 $-1 -2.899999999999999911 -30 0 #
End-of-ACIS-data 