700 0 3 0           
30 Autodesk Translation Framework 20 ASM 230.7.1.65535 NT 24 Fri Mar  6 16:19:08 2026 
1 9.999999999999999547e-07 1.000000000000000036e-10 
body $3 -1 $-1 $4 $-1 $5 #
body $-1 -1 $-1 $6 $-1 $7 #
body $8 -1 $-1 $9 $-1 $10 #
rgb_color-st-attrib $-1 -1 $11 $-1 $0 0.7490196078431372584 0.7490196078431372584 0.7490196078431372584 #
lump $-1 -1 $-1 $-1 $12 $0 #
transform $-1 -1 1 0 0 0 1 0 0 0 1 0 0 0 1 no_rotate no_reflect no_shear #
lump $-1 -1 $-1 $-1 $13 $1 #
transform $-1 -1 1 0 0 0 1 0 0 0 1 0 0 0 1 no_rotate no_reflect no_shear #
rgb_color-st-attrib $-1 -1 $14 $-1 $2 0.7490196078431372584 0.7490196078431372584 0.7490196078431372584 #
lump $-1 -1 $-1 $-1 $15 $2 #
transform $-1 -1 1 0 0 0 1 0 0 0 1 0 0 0 1 no_rotate no_reflect no_shear #
DXID-attrib $-1 -1 $-1 $3 $0 @10 ASM ENTITY @106 ACOPLE_EXTRUCTOR.IPT|:|3DF11614147E39224686AFF4BDF5A4B2E273FE17|:|DA4B9237BACCCDF19C0760CAB7AEC4A8359010B0 #
shell $-1 -1 $-1 $-1 $-1 $16 $-1 $4 #
shell $-1 -1 $-1 $-1 $-1 $-1 $17 $6 #
DXID-attrib $-1 -1 $-1 $8 $2 @10 ASM ENTITY @110 ACOPLE_EXTRUCTOR_TCP.IPT|:|FE5EBB7F9F4D2336C6EC521FA086427E1EFB38E5|:|DA4B9237BACCCDF19C0760CAB7AEC4A8359010B0 #
shell $-1 -1 $-1 $-1 $-1 $18 $-1 $9 #
face $19 -1 $-1 $20 $21 $12 $-1 $22 reversed single #
wire $-1 -1 $-1 $-1 $23 $13 $-1 out #
face $24 -1 $-1 $25 $26 $15 $-1 $27 forward single #
DXID-attrib $-1 -1 $-1 $-1 $16 @10 ASM ENTITY @36 c1273f90-03e9-4d5e-a667-431c15165fce #
face $28 -1 $-1 $29 $30 $12 $-1 $31 forward single #
loop $-1 -1 $-1 $32 $33 $16 #
cone-surface $-1 -1 $-1 -50.76845658550766416 23.90558460487705261 -44.66580703942506148 -9.71445146547013452e-17 -7.973688233454145335e-16 -1 3.100000000000000089 -8.604228440844958258e-16 -3.011479954295734552e-16 1 I I 0 1 3.100000000000000089 forward I I I I #
coedge $-1 -1 $-1 $23 $23 $-1 $34 forward $17 $-1 #
DXID-attrib $-1 -1 $-1 $-1 $18 @10 ASM ENTITY @36 8f5f07d8-6cc0-4c30-9833-3b204a7de425 #
face $35 -1 $-1 $36 $37 $15 $-1 $38 forward single #
loop $-1 -1 $-1 $39 $40 $18 #
cone-surface $-1 -1 $-1 -39.61845658550798532 -90.29441539512299642 -14.14580703942498729 -1.998401444325282956e-15 -1 7.973688233454157168e-16 2.240000000000000213 -4.476419235288635147e-15 -1.025846074753643484e-15 1 I I -0.3793754183049592443 0.9252428286595564266 2.240000000000000213 forward I I I I #
DXID-attrib $-1 -1 $-1 $-1 $20 @10 ASM ENTITY @36 6d7e5015-18ed-4022-afbc-c39b3d82b8f4 #
face $41 -1 $-1 $42 $43 $12 $-1 $44 reversed single #
loop $-1 -1 $-1 $-1 $45 $20 #
plane-surface $-1 -1 $-1 -50.76845658550766416 23.90558460487704551 -50.86580703942506432 9.71445146547013452e-17 7.973688233454145335e-16 1 10 -2.775557561562889773e-15 -9.71445146547011184e-16 forward_v I I I I #
loop $-1 -1 $-1 $-1 $46 $16 #
coedge $-1 -1 $-1 $33 $33 $45 $47 forward $21 $-1 #
edge $-1 -1 $-1 $48 0 $49 1 $23 $50 forward @7 unknown #
DXID-attrib $-1 -1 $-1 $-1 $25 @10 ASM ENTITY @36 464b3cfc-1b5c-4dd5-8b1f-f9af3a94f115 #
face $51 -1 $-1 $52 $53 $15 $-1 $54 reversed single #
loop $-1 -1 $-1 $-1 $55 $25 #
plane-surface $-1 -1 $-1 -39.61845658550799243 -94.29441539512299642 -14.14580703942498374 -1.998401444325282956e-15 -1 7.973688233454157168e-16 -4.579669976578780196e-15 -7.973688233454148885e-15 -10 forward_v I I I I #
loop $-1 -1 $-1 $-1 $56 $18 #
coedge $-1 -1 $-1 $40 $40 $55 $57 forward $26 $-1 #
DXID-attrib $-1 -1 $-1 $-1 $29 @10 ASM ENTITY @36 b3835566-c47c-4a27-baee-4726c870c275 #
face $58 -1 $-1 $59 $60 $12 $-1 $61 forward single #
loop $-1 -1 $-1 $62 $63 $29 #
cone-surface $-1 -1 $-1 -50.76845658550765705 43.90558460487704906 -44.66580703942508279 -9.71445146547013452e-17 -7.973688233454145335e-16 -1 3.100000000000000089 -8.604228440844958258e-16 -3.011479954295734552e-16 1 I I 0 1 3.100000000000000089 forward I I I I #
coedge $-1 -1 $-1 $45 $45 $33 $47 reversed $30 $-1 #
coedge $-1 -1 $-1 $46 $46 $64 $65 reversed $32 $-1 #
edge $66 -1 $-1 $67 -6.283185307179586232 $67 -0 $33 $68 forward @7 unknown #
vertex $-1 -1 $-1 $34 $69 #
vertex $-1 -1 $-1 $34 $70 #
straight-curve $-1 -1 $-1 -69.51845658550766416 25.03807114539569056 -94.66580703942506148 -1.110223024625155752e-14 -40 3.189475293381658292e-14 F 0 F 1 #
DXID-attrib $-1 -1 $-1 $-1 $36 @10 ASM ENTITY @36 ac90fec1-56ea-4f57-a41c-b4e99d11437e #
face $71 -1 $-1 $72 $73 $15 $-1 $54 reversed single #
loop $-1 -1 $-1 $-1 $74 $36 #
plane-surface $-1 -1 $-1 -47.61845658550794269 -67.29441539512299642 -34.66580703942499753 4.57966997657878059e-16 7.973688233454148294e-16 1 10 -1.99840144432528335e-14 -4.579669976578764418e-15 forward_v I I I I #
coedge $-1 -1 $-1 $55 $55 $40 $57 reversed $37 $-1 #
coedge $-1 -1 $-1 $56 $56 $75 $76 reversed $39 $-1 #
edge $77 -1 $-1 $78 0 $78 6.283185307179586232 $40 $79 forward @7 unknown #
DXID-attrib $-1 -1 $-1 $-1 $42 @10 ASM ENTITY @36 d1b88c2b-f9e9-4b8f-8b6a-6f98c5591eeb #
face $80 -1 $-1 $81 $82 $12 $-1 $83 reversed single #
loop $-1 -1 $-1 $-1 $84 $42 #
plane-surface $-1 -1 $-1 -50.76845658550765705 43.90558460487704906 -50.86580703942508563 9.71445146547013452e-17 7.973688233454145335e-16 1 10 -2.775557561562889773e-15 -9.71445146547011184e-16 forward_v I I I I #
loop $-1 -1 $-1 $-1 $85 $29 #
coedge $-1 -1 $-1 $63 $63 $84 $86 forward $43 $-1 #
coedge $-1 -1 $-1 $64 $64 $46 $65 forward $87 $-1 #
edge $-1 -1 $-1 $88 0 $88 6.283185307179586232 $64 $89 forward @7 unknown #
DXID-attrib $-1 -1 $-1 $-1 $47 @10 ASM ENTITY @36 4e3d48a8-c419-426b-9a8e-f7d8b4ecc313 #
vertex $-1 -1 $-1 $47 $90 #
ellipse-curve $-1 -1 $-1 -50.76845658550766416 23.90558460487704551 -50.86580703942506432 -9.71445146547013452e-17 -7.973688233454145335e-16 -1 3.100000000000000089 -8.604228440844958258e-16 -3.011479954295734552e-16 1 I I #
point $-1 -1 $-1 -69.51845658550766416 25.03807114539569056 -94.66580703942506148 #
point $-1 -1 $-1 -69.51845658550767837 -14.96192885460430944 -94.66580703942503305 #
DXID-attrib $-1 -1 $-1 $-1 $52 @10 ASM ENTITY @36 6e33f197-cf60-4092-a925-85e501d4951d #
face $91 -1 $-1 $92 $93 $15 $-1 $54 reversed single #
loop $-1 -1 $-1 $-1 $94 $52 #
coedge $-1 -1 $-1 $74 $74 $95 $96 forward $53 $-1 #
coedge $-1 -1 $-1 $75 $75 $56 $76 forward $97 $-1 #
edge $-1 -1 $-1 $98 0 $98 6.283185307179586232 $75 $99 forward @7 unknown #
DXID-attrib $-1 -1 $-1 $-1 $57 @10 ASM ENTITY @36 b481d191-660d-4db8-82d3-7867e82c2c89 #
vertex $-1 -1 $-1 $57 $100 #
ellipse-curve $-1 -1 $-1 -39.61845658550799243 -94.29441539512299642 -14.14580703942498374 1.998401444325282956e-15 1 -7.973688233454157168e-16 0.5998882085708079348 -1.19881746244160939e-15 -2.7472900180953491e-16 1 I I #
DXID-attrib $-1 -1 $-1 $-1 $59 @10 ASM ENTITY @36 26f6087e-0f3e-4d6a-ba98-2a52f6148e2a #
face $101 -1 $-1 $102 $103 $12 $-1 $104 forward single #
loop $-1 -1 $-1 $105 $106 $59 #
cone-surface $-1 -1 $-1 -63.26845658550766416 23.90558460487705617 -44.66580703942506148 -9.71445146547013452e-17 -7.973688233454145335e-16 -1 3.099999999999999645 -8.604228440844957272e-16 -3.011479954295734552e-16 1 I I 0 1 3.099999999999999645 forward I I I I #
coedge $-1 -1 $-1 $84 $84 $63 $86 reversed $60 $-1 #
coedge $-1 -1 $-1 $85 $85 $107 $108 reversed $62 $-1 #
edge $109 -1 $-1 $110 -6.283185307179586232 $110 -0 $63 $111 forward @7 unknown #
loop $-1 -1 $-1 $112 $64 $113 #
vertex $-1 -1 $-1 $65 $114 #
ellipse-curve $-1 -1 $-1 -50.76845658550766416 23.90558460487705261 -44.66580703942506148 -9.71445146547013452e-17 -7.973688233454145335e-16 -1 3.100000000000000089 -8.604228440844958258e-16 -3.011479954295734552e-16 1 I I #
point $-1 -1 $-1 -47.66845658550765563 23.90558460487704551 -50.86580703942506432 #
DXID-attrib $-1 -1 $-1 $-1 $72 @10 ASM ENTITY @36 f2adee5e-c1ac-40a3-ac0f-e34207d254ae #
face $115 -1 $-1 $116 $97 $15 $-1 $117 forward single #
loop $-1 -1 $-1 $-1 $118 $72 #
coedge $-1 -1 $-1 $119 $120 $121 $122 forward $73 $-1 #
coedge $-1 -1 $-1 $95 $95 $74 $96 reversed $123 $-1 #
edge $-1 -1 $-1 $124 0 $124 6.283185307179586232 $95 $125 forward @7 unknown #
loop $-1 -1 $-1 $126 $75 $92 #
vertex $-1 -1 $-1 $76 $127 #
ellipse-curve $-1 -1 $-1 -39.61845658550798532 -90.29441539512299642 -14.14580703942498729 1.998401444325282956e-15 1 -7.973688233454157168e-16 2.240000000000000213 -4.476419235288635147e-15 -1.025846074753643484e-15 1 I I #
point $-1 -1 $-1 -39.01856837693718205 -94.29441539512299642 -14.14580703942498374 #
DXID-attrib $-1 -1 $-1 $-1 $81 @10 ASM ENTITY @36 913ae08b-6df8-424b-9f7b-903c17db7541 #
face $128 -1 $-1 $129 $130 $12 $-1 $131 reversed single #
loop $-1 -1 $-1 $-1 $132 $81 #
plane-surface $-1 -1 $-1 -63.26845658550766416 23.90558460487705261 -50.86580703942506432 9.71445146547013452e-17 7.973688233454145335e-16 1 10 -2.775557561562889773e-15 -9.71445146547011184e-16 forward_v I I I I #
loop $-1 -1 $-1 $-1 $133 $59 #
coedge $-1 -1 $-1 $106 $106 $132 $134 forward $82 $-1 #
coedge $-1 -1 $-1 $107 $107 $85 $108 forward $112 $-1 #
edge $-1 -1 $-1 $135 0 $135 6.283185307179586232 $107 $136 forward @7 unknown #
DXID-attrib $-1 -1 $-1 $-1 $86 @10 ASM ENTITY @36 4ff2f27c-db72-421a-9a0e-9010578e44bd #
vertex $-1 -1 $-1 $86 $137 #
ellipse-curve $-1 -1 $-1 -50.76845658550765705 43.90558460487704906 -50.86580703942508563 -9.71445146547013452e-17 -7.973688233454145335e-16 -1 3.100000000000000089 -8.604228440844958258e-16 -3.011479954295734552e-16 1 I I #
loop $-1 -1 $-1 $138 $107 $113 #
face $139 -1 $-1 $140 $87 $12 $-1 $141 forward single #
point $-1 -1 $-1 -47.66845658550765563 23.90558460487705261 -44.66580703942506148 #
DXID-attrib $-1 -1 $-1 $-1 $92 @10 ASM ENTITY @36 7860afec-653f-409c-b084-a806a6ab68e2 #
face $142 -1 $-1 $143 $144 $15 $-1 $145 forward single #
plane-surface $-1 -1 $-1 -71.61845658550799953 -90.29441539512293957 -34.6658070394249691 -1.998401444325282956e-15 -1 7.973688233454157168e-16 10 -1.99840144432528335e-14 -4.579669976578764418e-15 forward_v I I I I #
coedge $-1 -1 $-1 $146 $147 $148 $149 forward $93 $-1 #
coedge $-1 -1 $-1 $150 $94 $151 $152 forward $73 $-1 #
coedge $-1 -1 $-1 $94 $153 $154 $155 reversed $73 $-1 #
coedge $-1 -1 $-1 $156 $157 $94 $122 reversed $158 $-1 #
edge $-1 -1 $-1 $159 -1.570796326794896558 $160 0 $121 $161 forward @7 unknown #
loop $-1 -1 $-1 $-1 $95 $162 #
vertex $-1 -1 $-1 $96 $163 #
ellipse-curve $-1 -1 $-1 -57.26845658550796969 -78.19441539512297368 -34.66580703942498332 -4.57966997657878059e-16 -7.973688233454148294e-16 -1 3.600000000000003642 -7.194245199571028266e-15 -1.648681191568357029e-15 1 I I #
loop $-1 -1 $-1 $-1 $164 $92 #
point $-1 -1 $-1 -37.37845658550799044 -90.29441539512299642 -14.14580703942498729 #
DXID-attrib $-1 -1 $-1 $-1 $102 @10 ASM ENTITY @36 e092bbfa-e213-44f6-8622-4a7b2b97947c #
face $165 -1 $-1 $166 $167 $12 $-1 $168 forward single #
loop $-1 -1 $-1 $169 $170 $102 #
cone-surface $-1 -1 $-1 -63.26845658550765705 43.90558460487704906 -44.66580703942507569 -9.71445146547013452e-17 -7.973688233454145335e-16 -1 3.100000000000000533 -8.604228440844959244e-16 -3.011479954295735045e-16 1 I I 0 1 3.100000000000000533 forward I I I I #
coedge $-1 -1 $-1 $132 $132 $106 $134 reversed $103 $-1 #
coedge $-1 -1 $-1 $133 $133 $171 $172 reversed $105 $-1 #
edge $173 -1 $-1 $174 -6.283185307179586232 $174 -0 $106 $175 forward @7 unknown #
vertex $-1 -1 $-1 $108 $176 #
ellipse-curve $-1 -1 $-1 -50.76845658550765705 43.90558460487704906 -44.66580703942508279 -9.71445146547013452e-17 -7.973688233454145335e-16 -1 3.100000000000000089 -8.604228440844958258e-16 -3.011479954295734552e-16 1 I I #
point $-1 -1 $-1 -47.66845658550765563 43.90558460487704906 -50.86580703942508563 #
loop $-1 -1 $-1 $177 $171 $113 #
DXID-attrib $-1 -1 $-1 $-1 $113 @10 ASM ENTITY @36 8e51139f-14ab-481e-b0d5-ff825c3606b6 #
face $178 -1 $-1 $179 $180 $12 $-1 $181 forward single #
plane-surface $-1 -1 $-1 -57.01845658550766416 5.038071145395727868 -44.66580703942504726 9.71445146547013452e-17 7.973688233454145335e-16 1 10 -2.775557561562889773e-15 -9.71445146547011184e-16 forward_v I I I I #
DXID-attrib $-1 -1 $-1 $-1 $116 @10 ASM ENTITY @36 cdb7bc19-3b37-4a6a-a0f6-0728e5a498ec #
face $182 -1 $-1 $183 $184 $15 $-1 $185 forward single #
loop $-1 -1 $-1 $-1 $186 $116 #
plane-surface $-1 -1 $-1 -71.61845658550790006 -44.29441539512291826 -34.66580703942500463 -1 1.950130878037233049e-15 4.579669976578764813e-16 -1.950130878037232655e-14 -10 7.973688233454156774e-15 forward_v I I I I #
coedge $-1 -1 $-1 $187 $118 $188 $189 forward $93 $-1 #
coedge $-1 -1 $-1 $118 $190 $191 $192 reversed $93 $-1 #
coedge $-1 -1 $-1 $193 $194 $118 $149 reversed $195 $-1 #
edge $-1 -1 $-1 $196 0.1699999999999999289 $197 0.3950000000000000178 $148 $198 forward @7 unknown #
coedge $-1 -1 $-1 $199 $119 $200 $201 forward $73 $-1 #
coedge $-1 -1 $-1 $202 $203 $119 $152 reversed $204 $-1 #
edge $-1 -1 $-1 $160 -5.605000000000000426 $205 -4.615000000000000213 $151 $206 forward @7 unknown #
coedge $-1 -1 $-1 $120 $207 $208 $209 reversed $73 $-1 #
coedge $-1 -1 $-1 $210 $164 $120 $155 forward $126 $-1 #
edge $211 -1 $-1 $159 1.434999999999999831 $212 4.800000000000000711 $154 $213 forward @7 unknown #
coedge $-1 -1 $-1 $214 $121 $187 $215 reversed $158 $-1 #
coedge $-1 -1 $-1 $121 $216 $202 $217 reversed $158 $-1 #
loop $-1 -1 $-1 $-1 $156 $218 #
vertex $-1 -1 $-1 $122 $219 #
vertex $-1 -1 $-1 $122 $220 #
ellipse-curve $-1 -1 $-1 -57.26845658550796969 -78.19441539512297368 -34.66580703942498332 4.57966997657878059e-16 7.973688233454148294e-16 1 12.09999999999999964 -2.418065747633592649e-14 -5.54140067166030564e-15 1 I I #
face $221 -1 $-1 $222 $223 $15 $-1 $224 reversed single #
point $-1 -1 $-1 -53.66845658550796827 -78.19441539512297368 -34.66580703942498332 #
coedge $-1 -1 $-1 $154 $225 $190 $226 forward $126 $-1 #
DXID-attrib $-1 -1 $-1 $-1 $129 @10 ASM ENTITY @36 637ddefb-c978-4d9c-bd45-96401ab4e1c4 #
face $227 -1 $-1 $113 $228 $12 $-1 $229 reversed single #
loop $-1 -1 $-1 $-1 $230 $129 #
plane-surface $-1 -1 $-1 -63.26845658550765705 43.90558460487704906 -50.86580703942507853 9.71445146547013452e-17 7.973688233454145335e-16 1 10 -2.775557561562889773e-15 -9.71445146547011184e-16 forward_v I I I I #
loop $-1 -1 $-1 $-1 $231 $102 #
coedge $-1 -1 $-1 $170 $170 $230 $232 forward $130 $-1 #
coedge $-1 -1 $-1 $171 $171 $133 $172 forward $138 $-1 #
edge $-1 -1 $-1 $233 0 $233 6.283185307179586232 $171 $234 forward @7 unknown #
DXID-attrib $-1 -1 $-1 $-1 $134 @10 ASM ENTITY @36 58ce97cf-5bfe-406f-a75c-167e530c6109 #
vertex $-1 -1 $-1 $134 $235 #
ellipse-curve $-1 -1 $-1 -63.26845658550766416 23.90558460487705261 -50.86580703942506432 -9.71445146547013452e-17 -7.973688233454145335e-16 -1 3.099999999999999645 -8.604228440844957272e-16 -3.011479954295734552e-16 1 I I #
point $-1 -1 $-1 -47.66845658550765563 43.90558460487704906 -44.66580703942508279 #
loop $-1 -1 $-1 $236 $237 $113 #
DXID-attrib $-1 -1 $-1 $-1 $140 @10 ASM ENTITY @36 857cd708-1385-4701-ae4f-ca9ba0066e5d #
face $238 -1 $-1 $239 $240 $12 $-1 $241 forward single #
loop $-1 -1 $-1 $-1 $242 $140 #
plane-surface $-1 -1 $-1 -44.51845658550767837 -14.96192885460431654 -94.66580703942503305 1 -2.775557561562889872e-16 -9.714451465470112333e-17 2.775557561562888984e-15 10 -7.97368823345414573e-15 forward_v I I I I #
DXID-attrib $-1 -1 $-1 $-1 $143 @10 ASM ENTITY @36 4d3cc0f4-e988-4390-ab4d-6295e93ece9e #
face $243 -1 $-1 $244 $245 $15 $-1 $246 forward single #
loop $-1 -1 $-1 $-1 $247 $143 #
plane-surface $-1 -1 $-1 -23.61845658550789295 -44.29441539512303194 -34.66580703942502595 1.998401444325282956e-15 1 -7.973688233454157168e-16 -10 1.99840144432528335e-14 4.579669976578764418e-15 forward_v I I I I #
coedge $-1 -1 $-1 $191 $248 $249 $250 reversed $144 $-1 #
coedge $-1 -1 $-1 $190 $146 $156 $215 forward $93 $-1 #
coedge $-1 -1 $-1 $251 $252 $146 $189 reversed $253 $-1 #
edge $-1 -1 $-1 $197 5.11000000000000032 $254 6.100000000000000533 $188 $255 forward @7 unknown #
coedge $-1 -1 $-1 $147 $187 $164 $226 reversed $93 $-1 #
coedge $-1 -1 $-1 $256 $186 $147 $192 forward $144 $-1 #
edge $257 -1 $-1 $196 2.400000000000000355 $258 4.600000000000001421 $191 $259 forward @7 unknown #
coedge $-1 -1 $-1 $260 $148 $261 $262 reversed $195 $-1 #
coedge $-1 -1 $-1 $148 $263 $251 $264 reversed $195 $-1 #
loop $-1 -1 $-1 $-1 $193 $265 #
vertex $-1 -1 $-1 $149 $266 #
vertex $-1 -1 $-1 $149 $267 #
straight-curve $-1 -1 $-1 -73.31845658550795974 -68.29441539512293957 -34.66580703942498332 10 -1.99840144432528335e-14 -4.579669976578764418e-15 I I #
coedge $-1 -1 $-1 $207 $150 $268 $269 reversed $73 $-1 #
coedge $-1 -1 $-1 $270 $271 $150 $201 reversed $272 $-1 #
edge $-1 -1 $-1 $205 0.6049999999999997602 $273 2.605000000000001315 $200 $274 forward @7 unknown #
coedge $-1 -1 $-1 $275 $151 $157 $217 forward $204 $-1 #
coedge $-1 -1 $-1 $151 $275 $270 $276 reversed $204 $-1 #
loop $-1 -1 $-1 $-1 $151 $277 #
vertex $-1 -1 $-1 $152 $278 #
straight-curve $-1 -1 $-1 -45.16845658550786169 -22.14441539512298363 -34.66580703942503305 1.998401444325283035e-14 10 -7.973688233454156774e-15 I I #
coedge $-1 -1 $-1 $153 $199 $247 $279 reversed $73 $-1 #
coedge $-1 -1 $-1 $280 $281 $153 $209 forward $245 $-1 #
edge $282 -1 $-1 $212 0 $283 4.600000000000001421 $208 $284 forward @7 unknown #
coedge $-1 -1 $-1 $285 $154 $281 $286 forward $126 $-1 #
DXID-attrib $-1 -1 $-1 $-1 $155 @10 ASM ENTITY @36 0cef7dd7-abb2-409e-9e01-a0460eb5fe18 #
vertex $-1 -1 $-1 $209 $287 #
straight-curve $-1 -1 $-1 -71.61845658550799953 -90.29441539512293957 -34.6658070394249691 10 -1.99840144432528335e-14 -4.579669976578764418e-15 F 0 F 4.800000000000000711 #
coedge $-1 -1 $-1 $216 $156 $252 $288 forward $158 $-1 #
edge $-1 -1 $-1 $254 -3.141592653589793116 $159 -1.570796326794896558 $156 $161 forward @7 unknown #
coedge $-1 -1 $-1 $157 $214 $289 $290 reversed $158 $-1 #
edge $291 -1 $-1 $160 0 $292 1 $157 $293 forward @7 tangent #
face $294 -1 $-1 $295 $158 $15 $-1 $296 reversed single #
point $-1 -1 $-1 -57.26845658550799811 -90.29441539512296799 -34.66580703942497621 #
point $-1 -1 $-1 -45.16845658550797538 -78.19441539512297368 -34.66580703942499042 #
DXID-attrib $-1 -1 $-1 $-1 $162 @10 ASM ENTITY @36 a15b1123-f272-48c2-9b69-2a29f9dbd12d #
face $297 -1 $-1 $277 $272 $15 $-1 $298 reversed single #
loop $-1 -1 $-1 $123 $299 $162 #
cone-surface $-1 -1 $-1 -57.26845658550796969 -78.19441539512297368 -34.66580703942498332 -4.57966997657878059e-16 -7.973688233454148294e-16 -1 3.600000000000003642 -7.194245199571028266e-15 -1.648681191568357029e-15 1 I I 0 1 3.600000000000003642 forward I I I I #
coedge $-1 -1 $-1 $164 $285 $256 $300 reversed $126 $-1 #
edge $301 -1 $-1 $258 0 $159 1.434999999999999831 $164 $213 forward @7 unknown #
DXID-attrib $-1 -1 $-1 $-1 $166 @10 ASM ENTITY @36 afa08df9-0139-48ee-be5b-ef3e8498ebcd #
loop $-1 -1 $-1 $-1 $302 $166 #
plane-surface $-1 -1 $-1 -69.51845658550767837 -14.96192885460431299 -94.66580703942503305 1.917980784705944963e-16 0.8660254037844380415 -0.5000000000000011102 2.229074956074256232e-15 5.000000000000010658 8.660254037844380193 forward_v I I I I #
coedge $-1 -1 $-1 $230 $230 $170 $232 reversed $167 $-1 #
coedge $-1 -1 $-1 $231 $231 $237 $303 reversed $169 $-1 #
edge $304 -1 $-1 $305 -6.283185307179586232 $305 -0 $170 $306 forward @7 unknown #
vertex $-1 -1 $-1 $172 $307 #
ellipse-curve $-1 -1 $-1 -63.26845658550766416 23.90558460487705617 -44.66580703942506148 -9.71445146547013452e-17 -7.973688233454145335e-16 -1 3.099999999999999645 -8.604228440844957272e-16 -3.011479954295734552e-16 1 I I #
point $-1 -1 $-1 -60.16845658550766274 23.90558460487704906 -50.86580703942506432 #
loop $-1 -1 $-1 $-1 $308 $113 #
coedge $-1 -1 $-1 $237 $237 $231 $303 forward $177 $-1 #
DXID-attrib $-1 -1 $-1 $-1 $179 @10 ASM ENTITY @36 89ccf2ec-6426-42bd-ae0c-7f4ef065fcf1 #
face $309 -1 $-1 $310 $311 $12 $-1 $312 forward single #
loop $-1 -1 $-1 $-1 $313 $179 #
plane-surface $-1 -1 $-1 -69.51845658550766416 25.03807114539568346 -94.66580703942507569 1.917980784705944716e-16 0.8660254037844379305 -0.5000000000000013323 2.229074956074256232e-15 5.000000000000013323 8.660254037844378416 forward_v I I I I #
coedge $-1 -1 $-1 $314 $315 $316 $317 forward $180 $-1 #
DXID-attrib $-1 -1 $-1 $-1 $183 @10 ASM ENTITY @36 799981da-6736-404a-b63f-0a88b33c18d3 #
face $318 -1 $-1 $319 $320 $15 $-1 $321 forward single #
loop $-1 -1 $-1 $-1 $208 $183 #
plane-surface $-1 -1 $-1 -23.61845658550798532 -90.29441539512305326 -34.66580703942499042 1 -1.99840144432528335e-15 -4.579669976578764813e-16 1.998401444325283035e-14 10 -7.973688233454156774e-15 forward_v I I I I #
coedge $-1 -1 $-1 $322 $323 $207 $279 forward $184 $-1 #
coedge $-1 -1 $-1 $186 $324 $325 $326 reversed $144 $-1 #
coedge $-1 -1 $-1 $327 $261 $186 $250 forward $328 $-1 #
edge $-1 -1 $-1 $196 -6.310000000000000497 $329 -3.910000000000000142 $249 $330 forward @7 unknown #
coedge $-1 -1 $-1 $331 $188 $194 $264 forward $253 $-1 #
coedge $-1 -1 $-1 $188 $331 $214 $288 reversed $253 $-1 #
loop $-1 -1 $-1 $-1 $188 $295 #
vertex $-1 -1 $-1 $189 $332 #
straight-curve $-1 -1 $-1 -69.36845658550784322 -17.19441539512292394 -34.66580703942502595 -2.222688924047536945e-14 -10 7.973688233454158351e-15 I I #
coedge $-1 -1 $-1 $324 $191 $225 $300 forward $144 $-1 #
DXID-attrib $-1 -1 $-1 $-1 $192 @10 ASM ENTITY @36 3d7b03fa-d7b5-404a-a357-06271da8571b #
vertex $-1 -1 $-1 $226 $333 #
straight-curve $-1 -1 $-1 -71.61845658550790006 -44.29441539512291826 -34.66580703942500463 -1.950130878037232655e-14 -10 7.973688233454156774e-15 F 0 F 4.600000000000001421 #
coedge $-1 -1 $-1 $263 $193 $334 $335 reversed $195 $-1 #
coedge $-1 -1 $-1 $249 $336 $193 $262 forward $328 $-1 #
edge $-1 -1 $-1 $337 -1.605000000000000426 $196 0.1699999999999999289 $261 $198 forward @7 unknown #
coedge $-1 -1 $-1 $194 $260 $338 $339 reversed $195 $-1 #
edge $340 -1 $-1 $197 0 $341 1 $194 $342 forward @7 unknown #
face $343 -1 $-1 $344 $195 $15 $-1 $345 reversed single #
point $-1 -1 $-1 -71.6184565855079569 -68.29441539512293957 -34.66580703942498332 #
point $-1 -1 $-1 -69.36845658550794269 -68.29441539512293957 -34.66580703942499042 #
coedge $-1 -1 $-1 $346 $347 $199 $269 forward $348 $-1 #
edge $349 -1 $-1 $350 5.820000000000000284 $273 8.220000000000000639 $268 $351 forward @7 unknown #
coedge $-1 -1 $-1 $352 $200 $203 $276 forward $272 $-1 #
coedge $-1 -1 $-1 $200 $352 $346 $353 reversed $272 $-1 #
loop $-1 -1 $-1 $-1 $200 $222 #
vertex $-1 -1 $-1 $201 $354 #
straight-curve $-1 -1 $-1 -51.21845658550795122 -68.29441539512296799 -34.66580703942499042 10 -1.99840144432528335e-14 -4.579669976578764418e-15 I I #
coedge $-1 -1 $-1 $203 $202 $355 $356 reversed $204 $-1 #
edge $357 -1 $-1 $205 0 $358 1 $203 $359 forward @7 unknown #
face $360 -1 $-1 $218 $204 $15 $-1 $361 reversed single #
point $-1 -1 $-1 -45.16845658550795406 -68.29441539512296799 -34.66580703942499753 #
edge $362 -1 $-1 $283 -0 $350 0.1549999999999993605 $247 $363 forward @7 unknown #
coedge $-1 -1 $-1 $364 $208 $323 $365 forward $245 $-1 #
coedge $-1 -1 $-1 $208 $364 $210 $286 reversed $245 $-1 #
DXID-attrib $-1 -1 $-1 $-1 $209 @10 ASM ENTITY @36 885679c0-f881-46b2-8fbc-f94040a936ab #
vertex $-1 -1 $-1 $279 $366 #
straight-curve $-1 -1 $-1 -23.61845658550798532 -90.29441539512305326 -34.66580703942499042 1.998401444325283035e-14 10 -7.973688233454156774e-15 F 0 F 4.600000000000001421 #
coedge $-1 -1 $-1 $225 $210 $367 $368 reversed $126 $-1 #
edge $369 -1 $-1 $212 0 $370 5.252000000000000668 $281 $371 forward @7 unknown #
point $-1 -1 $-1 -23.61845658550798532 -90.29441539512305326 -34.66580703942499042 #
edge $372 -1 $-1 $254 0 $373 1 $252 $374 forward @7 tangent #
coedge $-1 -1 $-1 $375 $355 $216 $290 forward $376 $-1 #
edge $-1 -1 $-1 $292 0 $373 3.141592653589793116 $289 $377 forward @7 unknown #
DXID-attrib $-1 -1 $-1 $-1 $217 @10 ASM ENTITY @36 d1780f99-9996-4753-9683-391cae5d2472 #
vertex $-1 -1 $-1 $217 $378 #
straight-curve $-1 -1 $-1 -45.16845658550797538 -78.19441539512297368 -34.66580703942499042 -4.579669976578780196e-15 -7.973688233454148885e-15 -10 I I #
DXID-attrib $-1 -1 $-1 $-1 $218 @10 ASM ENTITY @36 7ccdb92e-db3d-4c18-87ee-accdc1ffd127 #
face $379 -1 $-1 $265 $253 $15 $-1 $380 reversed single #
cone-surface $-1 -1 $-1 -57.26845658550796969 -78.19441539512297368 -34.66580703942498332 -4.57966997657878059e-16 -7.973688233454148294e-16 -1 12.09999999999999964 -2.418065747633592649e-14 -5.54140067166030564e-15 1 I I 0 -1 12.09999999999999964 forward I I I I #
DXID-attrib $-1 -1 $-1 $-1 $222 @10 ASM ENTITY @36 06389597-3ae2-431e-8897-89000217f2d8 #
plane-surface $-1 -1 $-1 -45.16845658550795406 -68.29441539512296799 -34.66580703942499753 1.998401444325282956e-15 1 -7.973688233454157168e-16 10 -1.99840144432528335e-14 -4.579669976578764418e-15 forward_v I I I I #
coedge $-1 -1 $-1 $299 $299 $381 $382 reversed $223 $-1 #
edge $383 -1 $-1 $258 0 $384 5.252000000000000668 $256 $385 forward @7 unknown #
DXID-attrib $-1 -1 $-1 $-1 $226 @10 ASM ENTITY @36 67425a71-4fc2-47ea-ab3b-2f87f5647ee1 #
coedge $-1 -1 $-1 $386 $387 $388 $389 reversed $228 $-1 #
edge $-1 -1 $-1 $390 0 $390 6.283185307179586232 $237 $391 forward @7 unknown #
DXID-attrib $-1 -1 $-1 $-1 $232 @10 ASM ENTITY @36 e256a712-540e-4b82-86cb-bf3f4496fdb5 #
vertex $-1 -1 $-1 $232 $392 #
ellipse-curve $-1 -1 $-1 -63.26845658550765705 43.90558460487704906 -50.86580703942507853 -9.71445146547013452e-17 -7.973688233454145335e-16 -1 3.100000000000000533 -8.604228440844959244e-16 -3.011479954295735045e-16 1 I I #
point $-1 -1 $-1 -60.16845658550766274 23.90558460487705617 -44.66580703942506148 #
coedge $-1 -1 $-1 $393 $394 $387 $395 forward $236 $-1 #
DXID-attrib $-1 -1 $-1 $-1 $239 @10 ASM ENTITY @36 4e812b07-8526-414c-89cd-8e368914a303 #
face $396 -1 $-1 $397 $398 $12 $-1 $399 forward single #
loop $-1 -1 $-1 $-1 $388 $239 #
plane-surface $-1 -1 $-1 -69.51845658550766416 25.03807114539569412 -94.66580703942506148 -1 2.775557561562889872e-16 9.714451465470112333e-17 -2.775557561562888984e-15 -10 7.97368823345414573e-15 forward_v I I I I #
coedge $-1 -1 $-1 $400 $401 $402 $403 reversed $240 $-1 #
coedge $-1 -1 $-1 $404 $242 $405 $406 reversed $180 $-1 #
coedge $-1 -1 $-1 $242 $404 $393 $407 reversed $180 $-1 #
coedge $-1 -1 $-1 $387 $386 $242 $317 reversed $228 $-1 #
edge $-1 -1 $-1 $408 -5.773502691896259975 $409 -3.84592537276712714e-16 $242 $410 forward @7 unknown #
DXID-attrib $-1 -1 $-1 $-1 $244 @10 ASM ENTITY @36 bb29f954-2000-48af-b63d-8853565fc614 #
face $411 -1 $-1 $162 $412 $15 $-1 $413 forward single #
loop $-1 -1 $-1 $-1 $414 $244 #
plane-surface $-1 -1 $-1 -47.61845658550792137 -67.29441539512293957 17.8541929605750056 4.57966997657878059e-16 7.973688233454148294e-16 1 10 -1.99840144432528335e-14 -4.579669976578764418e-15 forward_v I I I I #
coedge $-1 -1 $-1 $325 $247 $327 $415 reversed $184 $-1 #
coedge $-1 -1 $-1 $247 $416 $280 $365 reversed $184 $-1 #
coedge $-1 -1 $-1 $248 $256 $417 $418 reversed $144 $-1 #
coedge $-1 -1 $-1 $416 $322 $248 $326 forward $184 $-1 #
edge $419 -1 $-1 $329 0 $420 5.252000000000000668 $325 $421 forward @7 unknown #
coedge $-1 -1 $-1 $422 $249 $322 $415 forward $328 $-1 #
loop $-1 -1 $-1 $-1 $249 $319 #
vertex $-1 -1 $-1 $250 $423 #
straight-curve $-1 -1 $-1 -71.618456585507829 -5.19441539512292394 -34.66580703942503305 1.950130878037232655e-14 10 -7.973688233454156774e-15 I I #
coedge $-1 -1 $-1 $252 $251 $375 $424 reversed $253 $-1 #
point $-1 -1 $-1 -69.36845658550797111 -78.19441539512294526 -34.66580703942497621 #
point $-1 -1 $-1 -71.61845658550799953 -90.29441539512293957 -34.6658070394249691 #
coedge $-1 -1 $-1 $425 $426 $260 $335 forward $427 $-1 #
edge $-1 -1 $-1 $428 -1 $337 0 $334 $429 forward @7 unknown #
coedge $-1 -1 $-1 $261 $430 $425 $431 forward $328 $-1 #
vertex $-1 -1 $-1 $431 $432 #
coedge $-1 -1 $-1 $433 $375 $263 $339 forward $376 $-1 #
edge $-1 -1 $-1 $341 -0.3950000000000000178 $428 1.605000000000000426 $338 $434 forward @7 unknown #
DXID-attrib $-1 -1 $-1 $-1 $264 @10 ASM ENTITY @36 d3a0d480-66e2-4e05-9340-f288e705ac46 #
vertex $-1 -1 $-1 $264 $435 #
straight-curve $-1 -1 $-1 -69.36845658550794269 -68.29441539512293957 -34.66580703942499042 -4.579669976578780196e-15 -7.973688233454148885e-15 -10 I I #
DXID-attrib $-1 -1 $-1 $-1 $265 @10 ASM ENTITY @36 f6de7898-5c36-4488-bfd8-cb82e7e28456 #
face $436 -1 $-1 $437 $438 $15 $-1 $439 reversed single #
plane-surface $-1 -1 $-1 -89.3684565855079569 -68.29441539512288273 -34.66580703942497621 1.998401444325282956e-15 1 -7.973688233454157168e-16 10 -1.99840144432528335e-14 -4.579669976578764418e-15 forward_v I I I I #
coedge $-1 -1 $-1 $440 $268 $271 $353 forward $348 $-1 #
coedge $-1 -1 $-1 $268 $441 $422 $442 forward $348 $-1 #
loop $-1 -1 $-1 $-1 $346 $443 #
DXID-attrib $-1 -1 $-1 $-1 $269 @10 ASM ENTITY @36 223fed67-73d7-4883-9915-b610035f5f79 #
vertex $-1 -1 $-1 $269 $444 #
straight-curve $-1 -1 $-1 -25.16845658550777642 13.90558460487698511 -34.66580703942507569 -1.998401444325283035e-14 -10 7.973688233454156774e-15 I I #
coedge $-1 -1 $-1 $271 $270 $445 $446 reversed $272 $-1 #
edge $-1 -1 $-1 $273 -0.5 $447 0.5 $346 $448 forward @7 unknown #
point $-1 -1 $-1 -25.16845658550793985 -68.29441539512302484 -34.66580703942500463 #
coedge $-1 -1 $-1 $289 $445 $275 $356 forward $376 $-1 #
edge $-1 -1 $-1 $358 4.615000000000000213 $292 5.605000000000000426 $355 $449 forward @7 unknown #
DXID-attrib $-1 -1 $-1 $-1 $276 @10 ASM ENTITY @36 2adcf120-6803-4f1c-af19-e13ce38c251c #
vertex $-1 -1 $-1 $276 $450 #
straight-curve $-1 -1 $-1 -45.16845658550795406 -68.29441539512296799 -34.66580703942499753 -4.579669976578780196e-15 -7.973688233454148885e-15 -10 I I #
DXID-attrib $-1 -1 $-1 $-1 $277 @10 ASM ENTITY @36 dff9efe0-dc36-4049-8527-74b7b630b1a1 #
plane-surface $-1 -1 $-1 -45.16845658550797538 -78.19441539512297368 -34.66580703942499042 -1 1.99840144432528335e-15 4.579669976578764813e-16 1.998401444325283035e-14 10 -7.973688233454156774e-15 forward_v I I I I #
DXID-attrib $-1 -1 $-1 $-1 $279 @10 ASM ENTITY @36 4a618e4e-b497-44e0-b99b-b499cfa593ac #
straight-curve $-1 -1 $-1 -23.61845658550789295 -44.29441539512303194 -34.66580703942502595 -10 1.99840144432528335e-14 4.579669976578764418e-15 F -0 F 4.800000000000000711 #
coedge $-1 -1 $-1 $281 $280 $414 $451 reversed $245 $-1 #
edge $452 -1 $-1 $283 0 $453 5.252000000000000668 $280 $454 forward @7 unknown #
point $-1 -1 $-1 -23.61845658550789295 -44.29441539512303194 -34.66580703942502595 #
coedge $-1 -1 $-1 $414 $417 $285 $368 forward $320 $-1 #
edge $455 -1 $-1 $384 0 $370 4.800000000000000711 $285 $456 forward @7 unknown #
DXID-attrib $-1 -1 $-1 $-1 $286 @10 ASM ENTITY @36 ed62900d-8c2b-4cac-8860-40a3d70c45fc #
vertex $-1 -1 $-1 $286 $457 #
straight-curve $-1 -1 $-1 -23.61845658550798532 -90.29441539512305326 -34.66580703942499042 4.579669976578780196e-15 7.973688233454148885e-15 10 I I #
DXID-attrib $-1 -1 $-1 $-1 $288 @10 ASM ENTITY @36 9281a8eb-7708-4f1d-9dfe-ff21d24880d3 #
vertex $-1 -1 $-1 $288 $458 #
straight-curve $-1 -1 $-1 -69.36845658550797111 -78.19441539512294526 -34.66580703942497621 -4.579669976578780196e-15 -7.973688233454148885e-15 -10 I I #
coedge $-1 -1 $-1 $338 $289 $331 $424 forward $376 $-1 #
loop $-1 -1 $-1 $-1 $445 $459 #
ellipse-curve $-1 -1 $-1 -57.2684565855079768 -78.19441539512297368 -44.66580703942498332 -4.57966997657878059e-16 -7.973688233454148294e-16 -1 12.09999999999999964 -2.418065747633592649e-14 -5.54140067166030564e-15 1 I I #
point $-1 -1 $-1 -45.16845658550798248 -78.19441539512297368 -44.66580703942499042 #
DXID-attrib $-1 -1 $-1 $-1 $295 @10 ASM ENTITY @36 7b8773cd-1231-4b30-9c80-c45c9b4418cf #
plane-surface $-1 -1 $-1 -69.36845658550794269 -68.29441539512293957 -34.66580703942499042 1 -2.222688924047537261e-15 -4.579669976578762841e-16 -2.222688924047536945e-14 -10 7.973688233454158351e-15 forward_v I I I I #
coedge $-1 -1 $-1 $381 $381 $299 $382 forward $460 $-1 #
edge $-1 -1 $-1 $461 0 $461 6.283185307179586232 $381 $462 forward @7 unknown #
DXID-attrib $-1 -1 $-1 $-1 $300 @10 ASM ENTITY @36 8cb72513-001b-4b12-a255-e67ab2b13bab #
vertex $-1 -1 $-1 $368 $463 #
straight-curve $-1 -1 $-1 -71.61845658550799953 -90.29441539512293957 -34.6658070394249691 4.579669976578780196e-15 7.973688233454148885e-15 10 I I #
coedge $-1 -1 $-1 $316 $302 $464 $465 reversed $228 $-1 #
coedge $-1 -1 $-1 $302 $316 $308 $395 reversed $228 $-1 #
coedge $-1 -1 $-1 $466 $467 $302 $389 forward $311 $-1 #
edge $-1 -1 $-1 $468 -1.000000000000000444 $469 4.773502691896259087 $388 $470 forward @7 unknown #
vertex $-1 -1 $-1 $303 $471 #
ellipse-curve $-1 -1 $-1 -63.26845658550765705 43.90558460487704906 -44.66580703942507569 -9.71445146547013452e-17 -7.973688233454145335e-16 -1 3.100000000000000533 -8.604228440844959244e-16 -3.011479954295735045e-16 1 I I #
point $-1 -1 $-1 -60.16845658550765563 43.90558460487704906 -50.86580703942507853 #
coedge $-1 -1 $-1 $472 $308 $315 $407 forward $236 $-1 #
coedge $-1 -1 $-1 $308 $472 $466 $473 reversed $236 $-1 #
edge $-1 -1 $-1 $469 -0.625 $408 1.875 $308 $474 forward @7 unknown #
DXID-attrib $-1 -1 $-1 $-1 $310 @10 ASM ENTITY @36 fb217bd8-018e-40fa-9efc-cb200271a237 #
face $475 -1 $-1 $476 $477 $12 $-1 $478 forward single #
loop $-1 -1 $-1 $479 $480 $310 #
cone-surface $-1 -1 $-1 -57.01845658550766416 30.03807114539567991 -104.6658070394250615 9.71445146547013452e-17 7.973688233454145335e-16 1 -3.100000000000000533 8.604228440844959244e-16 3.011479954295735045e-16 1 I I 0 -1 3.100000000000000533 forward I I I I #
coedge $-1 -1 $-1 $481 $313 $472 $482 forward $240 $-1 #
coedge $-1 -1 $-1 $313 $481 $483 $484 reversed $240 $-1 #
coedge $-1 -1 $-1 $467 $466 $313 $403 forward $311 $-1 #
edge $485 -1 $-1 $486 -0 $487 5.773502691896259087 $402 $488 forward @7 unknown #
coedge $-1 -1 $-1 $315 $314 $481 $489 forward $180 $-1 #
coedge $-1 -1 $-1 $464 $483 $314 $406 forward $490 $-1 #
edge $-1 -1 $-1 $491 -3 $409 1 $405 $492 forward @7 unknown #
edge $493 -1 $-1 $408 2.886751345948132208 $494 6.886751345948132652 $315 $495 forward @7 unknown #
vertex $-1 -1 $-1 $317 $496 #
vertex $-1 -1 $-1 $465 $497 #
straight-curve $-1 -1 $-1 -44.51845658550767126 -14.96192885460431654 -94.66580703942503305 -2.229074956074256232e-15 -5.000000000000010658 -8.660254037844380193 I I #
DXID-attrib $-1 -1 $-1 $-1 $319 @10 ASM ENTITY @36 7c61a648-1db3-4d05-9bd5-ec037c25de45 #
loop $-1 -1 $-1 $498 $499 $319 #
plane-surface $-1 -1 $-1 -57.26845658550774232 33.90558460487704906 -34.66580703942507569 4.57966997657878059e-16 7.973688233454148294e-16 1 10 -1.99840144432528335e-14 -4.579669976578764418e-15 forward_v I I I I #
coedge $-1 -1 $-1 $500 $367 $364 $451 forward $320 $-1 #
edge $-1 -1 $-1 $329 -3.117500000000000604 $350 1.527500000000000746 $327 $501 forward @7 unknown #
coedge $-1 -1 $-1 $323 $325 $500 $502 reversed $184 $-1 #
coedge $-1 -1 $-1 $367 $500 $324 $418 forward $320 $-1 #
edge $503 -1 $-1 $420 0 $384 4.600000000000001421 $324 $504 forward @7 unknown #
DXID-attrib $-1 -1 $-1 $-1 $326 @10 ASM ENTITY @36 7a7fc2a2-3d54-4c09-bf84-ee8f47d20930 #
vertex $-1 -1 $-1 $418 $505 #
straight-curve $-1 -1 $-1 -71.61845658550790006 -44.29441539512291826 -34.66580703942500463 4.579669976578780196e-15 7.973688233454148885e-15 10 I I #
coedge $-1 -1 $-1 $506 $327 $347 $442 reversed $328 $-1 #
point $-1 -1 $-1 -71.61845658550790006 -44.29441539512291826 -34.66580703942500463 #
edge $-1 -1 $-1 $373 -6.100000000000000533 $341 -5.11000000000000032 $375 $507 forward @7 unknown #
coedge $-1 -1 $-1 $508 $334 $336 $431 reversed $427 $-1 #
coedge $-1 -1 $-1 $334 $508 $433 $509 forward $427 $-1 #
loop $-1 -1 $-1 $-1 $334 $510 #
vertex $-1 -1 $-1 $335 $511 #
straight-curve $-1 -1 $-1 -89.3684565855079569 -68.29441539512288273 -34.66580703942497621 4.579669976578780196e-15 7.973688233454148885e-15 10 I I #
coedge $-1 -1 $-1 $336 $512 $513 $514 forward $328 $-1 #
edge $515 -1 $-1 $516 0 $337 8.220000000000000639 $336 $517 forward @7 unknown #
point $-1 -1 $-1 -89.3684565855079569 -68.29441539512288273 -34.66580703942497621 #
coedge $-1 -1 $-1 $518 $338 $426 $509 reversed $376 $-1 #
straight-curve $-1 -1 $-1 -73.31845658550795974 -68.29441539512293957 -44.66580703942498332 -10 1.99840144432528335e-14 4.579669976578764418e-15 I I #
point $-1 -1 $-1 -69.3684565855079569 -68.29441539512293957 -44.66580703942499042 #
DXID-attrib $-1 -1 $-1 $-1 $344 @10 ASM ENTITY @36 d445b0f9-64a4-4bbe-943d-1826fda5a0be #
face $519 -1 $-1 $459 $520 $15 $-1 $521 reversed single #
loop $-1 -1 $-1 $522 $523 $344 #
cone-surface $-1 -1 $-1 -36.91845658550786169 -37.69441539512299499 -34.66580703942502595 -4.57966997657878059e-16 -7.973688233454148294e-16 -1 2.600000000000001421 -5.195843755245739393e-15 -1.190714193910479364e-15 1 I I 0 1 2.600000000000001421 forward I I I I #
coedge $-1 -1 $-1 $441 $346 $524 $525 reversed $348 $-1 #
coedge $-1 -1 $-1 $347 $440 $526 $527 forward $348 $-1 #
edge $528 -1 $-1 $529 0 $350 5.820000000000000284 $347 $351 forward @7 unknown #
face $530 -1 $-1 $531 $348 $15 $-1 $532 forward single #
point $-1 -1 $-1 -25.16845658550789011 -44.29441539512303194 -34.66580703942502595 #
coedge $-1 -1 $-1 $355 $524 $352 $446 forward $376 $-1 #
edge $-1 -1 $-1 $447 -2.605000000000001315 $358 -0.6049999999999997602 $445 $533 forward @7 unknown #
vertex $-1 -1 $-1 $446 $534 #
straight-curve $-1 -1 $-1 -25.16845658550793985 -68.29441539512302484 -39.66580703942500463 -4.579669976578780196e-15 -7.973688233454148885e-15 -10 I I #
straight-curve $-1 -1 $-1 -45.16845658550786879 -22.14441539512298363 -44.66580703942503305 -1.998401444325283035e-14 -10 7.973688233454156774e-15 I I #
point $-1 -1 $-1 -45.16845658550795406 -68.29441539512296799 -44.66580703942499753 #
edge $535 -1 $-1 $370 0 $453 4.600000000000001421 $364 $536 forward @7 unknown #
DXID-attrib $-1 -1 $-1 $-1 $365 @10 ASM ENTITY @36 ba54f29a-73d2-4ee1-9084-b7787f692799 #
vertex $-1 -1 $-1 $502 $537 #
straight-curve $-1 -1 $-1 -23.61845658550789295 -44.29441539512303194 -34.66580703942502595 4.579669976578780196e-15 7.973688233454148885e-15 10 I I #
DXID-attrib $-1 -1 $-1 $-1 $368 @10 ASM ENTITY @36 9cef7ed3-d8e2-410f-8377-85bc4d0b1a0d #
straight-curve $-1 -1 $-1 -71.61845658550797111 -90.29441539512288273 17.85419296057504113 10 -1.99840144432528335e-14 -4.579669976578764418e-15 I I #
point $-1 -1 $-1 -23.61845658550796401 -90.29441539512299642 17.85419296057501271 #
point $-1 -1 $-1 -69.36845658550797111 -78.19441539512294526 -44.66580703942497621 #
face $538 -1 $-1 $539 $540 $15 $-1 $541 reversed single #
loop $-1 -1 $-1 $376 $381 $459 #
vertex $-1 -1 $-1 $382 $542 #
ellipse-curve $-1 -1 $-1 -57.2684565855079768 -78.19441539512297368 -44.66580703942498332 4.57966997657878059e-16 7.973688233454148294e-16 1 3.600000000000003642 -7.194245199571028266e-15 -1.648681191568357029e-15 1 I I #
point $-1 -1 $-1 -71.61845658550797111 -90.29441539512288273 17.85419296057504113 #
coedge $-1 -1 $-1 $543 $405 $386 $465 forward $490 $-1 #
edge $-1 -1 $-1 $409 -1.875 $468 0.625 $464 $544 forward @7 unknown #
coedge $-1 -1 $-1 $402 $388 $394 $473 forward $311 $-1 #
coedge $-1 -1 $-1 $388 $402 $543 $545 reversed $311 $-1 #
vertex $-1 -1 $-1 $389 $546 #
vertex $-1 -1 $-1 $389 $547 #
straight-curve $-1 -1 $-1 -69.51845658550767837 -9.961928854604295225 -86.00555300158063687 2.229074956074256232e-15 5.000000000000010658 8.660254037844380193 I I #
point $-1 -1 $-1 -60.16845658550765563 43.90558460487704906 -44.66580703942507569 #
coedge $-1 -1 $-1 $394 $393 $400 $482 reversed $236 $-1 #
edge $548 -1 $-1 $469 -1.113248654051867792 $486 2.886751345948132652 $466 $549 forward @7 unknown #
straight-curve $-1 -1 $-1 -63.26845658550766416 13.90558460487705261 -44.66580703942505437 10 -2.775557561562889773e-15 -9.71445146547011184e-16 I I #
DXID-attrib $-1 -1 $-1 $-1 $397 @10 ASM ENTITY @36 8a4beeab-33d0-43a7-b584-9831823846a5 #
face $550 -1 $-1 $551 $552 $12 $-1 $553 forward single #
loop $-1 -1 $-1 $554 $555 $397 #
cone-surface $-1 -1 $-1 -78.66909168011862619 17.53807114539569056 -104.6658070394250615 9.71445146547013452e-17 7.973688233454145335e-16 1 -3.100000000000000533 8.604228440844959244e-16 3.011479954295735045e-16 1 I I 0 -1 3.100000000000000533 forward I I I I #
loop $-1 -1 $-1 $-1 $556 $310 #
coedge $-1 -1 $-1 $480 $480 $557 $558 reversed $398 $-1 #
coedge $-1 -1 $-1 $401 $400 $404 $489 reversed $240 $-1 #
edge $559 -1 $-1 $486 0 $494 2.5 $400 $560 forward @7 unknown #
coedge $-1 -1 $-1 $405 $543 $401 $484 forward $490 $-1 #
edge $-1 -1 $-1 $487 -1.875 $491 0.625 $483 $561 forward @7 unknown #
DXID-attrib $-1 -1 $-1 $-1 $403 @10 ASM ENTITY @36 c7d897f9-68c7-4c3e-8c9f-aa91e2d4af1b #
vertex $-1 -1 $-1 $482 $562 #
vertex $-1 -1 $-1 $403 $563 #
straight-curve $-1 -1 $-1 -69.51845658550764995 53.90558460487704906 -44.6658070394250899 -2.229074956074256232e-15 -5.000000000000013323 -8.660254037844378416 F -0 F 5.773502691896259087 #
edge $564 -1 $-1 $491 -5.773502691896259087 $494 0 $481 $565 forward @7 unknown #
loop $-1 -1 $-1 $566 $464 $567 #
vertex $-1 -1 $-1 $406 $568 #
straight-curve $-1 -1 $-1 -44.51845658550767126 -4.961928854604316541 -94.66580703942503305 -2.775557561562888984e-15 -10 7.97368823345414573e-15 I I #
DXID-attrib $-1 -1 $-1 $-1 $407 @10 ASM ENTITY @36 fc20d5a6-eb99-4781-ac21-9f912fa9faad #
vertex $-1 -1 $-1 $407 $569 #
straight-curve $-1 -1 $-1 -44.51845658550767126 -14.96192885460427746 -44.66580703942503305 2.775557561562888984e-15 10 -7.97368823345414573e-15 I I #
point $-1 -1 $-1 -44.51845658550766416 13.90558460487704551 -44.66580703942505437 #
point $-1 -1 $-1 -44.51845658550767837 -14.96192885460431654 -94.66580703942503305 #
loop $-1 -1 $-1 $570 $571 $319 #
coedge $-1 -1 $-1 $499 $499 $572 $573 forward $412 $-1 #
coedge $-1 -1 $-1 $417 $414 $416 $502 forward $320 $-1 #
straight-curve $-1 -1 $-1 -40.4434565855078958 -44.29441539512300352 -34.66580703942501884 10 -1.99840144432528335e-14 -4.579669976578764418e-15 I I #
edge $574 -1 $-1 $453 -0 $420 4.800000000000000711 $416 $575 forward @7 unknown #
DXID-attrib $-1 -1 $-1 $-1 $418 @10 ASM ENTITY @36 a3788955-5ccb-4eeb-861e-507ad8b730c5 #
straight-curve $-1 -1 $-1 -71.61845658550788585 -44.29441539512287562 17.8541929605750056 -1.950130878037232655e-14 -10 7.973688233454156774e-15 I I #
point $-1 -1 $-1 -71.61845658550788585 -44.29441539512287562 17.8541929605750056 #
coedge $-1 -1 $-1 $576 $422 $577 $578 forward $328 $-1 #
straight-curve $-1 -1 $-1 -69.36845658550784322 -17.19441539512293815 -44.66580703942502595 2.222688924047536945e-14 10 -7.973688233454158351e-15 I I #
coedge $-1 -1 $-1 $426 $425 $579 $580 forward $427 $-1 #
edge $581 -1 $-1 $582 0 $428 8.220000000000000639 $433 $583 forward @7 unknown #
face $584 -1 $-1 $443 $427 $15 $-1 $585 forward single #
point $-1 -1 $-1 -89.3684565855079569 -68.29441539512288273 -44.66580703942497621 #
coedge $-1 -1 $-1 $430 $586 $587 $588 forward $328 $-1 #
coedge $-1 -1 $-1 $589 $579 $430 $514 reversed $590 $-1 #
edge $591 -1 $-1 $592 4.460000000000000853 $516 6.420000000000001705 $430 $593 forward @7 unknown #
DXID-attrib $-1 -1 $-1 $-1 $431 @10 ASM ENTITY @36 5cd35dbe-1d4d-41a3-9874-51c7f19c99a7 #
vertex $-1 -1 $-1 $514 $594 #
straight-curve $-1 -1 $-1 -89.36845658550780058 13.90558460487711301 -34.66580703942504726 -1.998401444325283035e-14 -10 7.973688233454156774e-15 I I #
coedge $-1 -1 $-1 $595 $433 $596 $597 forward $376 $-1 #
DXID-attrib $-1 -1 $-1 $-1 $437 @10 ASM ENTITY @36 83012dd3-d61d-48f0-bda8-f664722a70ce #
loop $-1 -1 $-1 $598 $599 $437 #
cone-surface $-1 -1 $-1 -77.61845658550788585 -37.69441539512292394 -34.66580703942500463 -4.57966997657878059e-16 -7.973688233454148294e-16 -1 2.600000000000000089 -5.195843755245737027e-15 -1.19071419391047897e-15 1 I I 0 1 2.600000000000000089 forward I I I I #
loop $-1 -1 $-1 $-1 $600 $344 #
coedge $-1 -1 $-1 $523 $523 $601 $602 reversed $438 $-1 #
coedge $-1 -1 $-1 $445 $603 $440 $525 forward $376 $-1 #
edge $604 -1 $-1 $605 0 $447 8.220000000000000639 $524 $606 forward @7 unknown #
coedge $-1 -1 $-1 $607 $577 $441 $527 reversed $608 $-1 #
edge $609 -1 $-1 $605 0 $529 1 $441 $610 forward @7 unknown #
DXID-attrib $-1 -1 $-1 $-1 $442 @10 ASM ENTITY @36 7050226c-d160-44c7-aaf8-05124fafd0fc #
vertex $-1 -1 $-1 $442 $611 #
DXID-attrib $-1 -1 $-1 $-1 $443 @10 ASM ENTITY @36 e170227b-2185-49bf-85b1-5c3688b274f3 #
face $612 -1 $-1 $613 $608 $15 $-1 $614 reversed single #
plane-surface $-1 -1 $-1 -25.16845658550777642 13.90558460487697801 -44.66580703942507569 1 -1.99840144432528335e-15 -4.579669976578764813e-16 4.579669976578780196e-15 7.973688233454148885e-15 10 forward_v I I I I #
straight-curve $-1 -1 $-1 -51.21845658550795832 -68.29441539512296799 -44.66580703942499753 -10 1.99840144432528335e-14 4.579669976578764418e-15 I I #
point $-1 -1 $-1 -25.16845658550793985 -68.29441539512302484 -44.66580703942500463 #
DXID-attrib $-1 -1 $-1 $-1 $451 @10 ASM ENTITY @36 746ee645-d5d0-4831-9c7f-245337a5646a #
straight-curve $-1 -1 $-1 -23.61845658550796401 -90.29441539512299642 17.85419296057501271 1.998401444325283035e-14 10 -7.973688233454156774e-15 I I #
point $-1 -1 $-1 -23.61845658550787164 -44.2944153951229751 17.85419296057497718 #
DXID-attrib $-1 -1 $-1 $-1 $459 @10 ASM ENTITY @36 f5df632f-6efe-4982-b5a5-703fe84ac801 #
face $615 -1 $-1 $510 $590 $15 $-1 $614 reversed single #
loop $-1 -1 $-1 $616 $617 $459 #
plane-surface $-1 -1 $-1 -57.26845658550774942 33.90558460487704195 -44.66580703942507569 4.57966997657878059e-16 7.973688233454148294e-16 1 10 -1.99840144432528335e-14 -4.579669976578764418e-15 forward_v I I I I #
point $-1 -1 $-1 -53.66845658550797538 -78.19441539512297368 -44.66580703942498332 #
coedge $-1 -1 $-1 $483 $464 $467 $545 forward $490 $-1 #
straight-curve $-1 -1 $-1 -63.26845658550767837 -14.96192885460430944 -94.66580703942503305 -10 2.775557561562889773e-15 9.71445146547011184e-16 I I #
edge $-1 -1 $-1 $468 -3 $487 1 $543 $618 forward @7 unknown #
point $-1 -1 $-1 -69.51845658550767837 -14.96192885460430588 -94.66580703942503305 #
point $-1 -1 $-1 -69.51845658550766416 13.90558460487705261 -44.66580703942505437 #
DXID-attrib $-1 -1 $-1 $-1 $473 @10 ASM ENTITY @36 770bfd79-70c9-40c2-b3de-d52fd2eadfd9 #
straight-curve $-1 -1 $-1 -69.51845658550766416 25.0380711453957332 -44.66580703942506148 2.775557561562888196e-15 10 -1.105042853166784547e-14 F -4 F 2.886751345948132652 #
DXID-attrib $-1 -1 $-1 $-1 $476 @10 ASM ENTITY @36 988c0d4e-1d49-4663-a00e-d739919c9ea7 #
face $619 -1 $-1 $620 $621 $12 $-1 $622 forward single #
loop $-1 -1 $-1 $623 $624 $476 #
cone-surface $-1 -1 $-1 -78.6690916801186404 -7.461928854604309436 -104.6658070394250331 9.71445146547013452e-17 7.973688233454145335e-16 1 -3.100000000000000533 8.604228440844959244e-16 3.011479954295735045e-16 1 I I 0 -1 3.100000000000000533 forward I I I I #
loop $-1 -1 $-1 $-1 $625 $397 #
coedge $-1 -1 $-1 $555 $555 $626 $627 reversed $477 $-1 #
coedge $-1 -1 $-1 $556 $556 $628 $629 forward $479 $-1 #
coedge $-1 -1 $-1 $557 $557 $480 $558 forward $630 $-1 #
edge $631 -1 $-1 $632 -3.141592653589793116 $632 3.141592653589793116 $480 $633 forward @7 unknown #
DXID-attrib $-1 -1 $-1 $-1 $482 @10 ASM ENTITY @36 0c580356-6f78-4590-a41a-6424217a2823 #
straight-curve $-1 -1 $-1 -69.51845658550764995 53.90558460487704906 -44.6658070394250899 10 -2.775557561562889773e-15 -9.71445146547011184e-16 I I #
straight-curve $-1 -1 $-1 -50.76845658550766416 25.03807114539568346 -94.66580703942506148 10 -2.775557561562889773e-15 -9.71445146547011184e-16 I I #
point $-1 -1 $-1 -69.51845658550764995 53.90558460487704906 -44.6658070394250899 #
point $-1 -1 $-1 -69.51845658550766416 25.03807114539569412 -94.66580703942506148 #
DXID-attrib $-1 -1 $-1 $-1 $489 @10 ASM ENTITY @36 2d6ce23e-9353-45c4-bfcf-0cd255a82195 #
straight-curve $-1 -1 $-1 -44.51845658550764995 53.90558460487704906 -44.66580703942510411 2.229074956074256232e-15 5.000000000000013323 8.660254037844378416 I I #
loop $-1 -1 $-1 $634 $635 $567 #
face $636 -1 $-1 $637 $490 $12 $-1 $638 forward single #
point $-1 -1 $-1 -44.51845658550766416 25.03807114539568346 -94.66580703942506148 #
point $-1 -1 $-1 -44.51845658550764995 53.90558460487704906 -44.66580703942510411 #
loop $-1 -1 $-1 $639 $640 $319 #
coedge $-1 -1 $-1 $571 $571 $641 $642 forward $498 $-1 #
coedge $-1 -1 $-1 $572 $572 $499 $573 reversed $643 $-1 #
edge $644 -1 $-1 $645 -3.141592653589793116 $645 3.141592653589793116 $572 $646 forward @7 unknown #
DXID-attrib $-1 -1 $-1 $-1 $502 @10 ASM ENTITY @36 4645cac6-9bd7-4f22-8698-a1ae62e04561 #
straight-curve $-1 -1 $-1 -23.61845658550787164 -44.2944153951229751 17.85419296057497718 -10 1.99840144432528335e-14 4.579669976578764418e-15 I I #
coedge $-1 -1 $-1 $586 $506 $647 $648 forward $328 $-1 #
coedge $-1 -1 $-1 $526 $649 $506 $578 reversed $608 $-1 #
edge $650 -1 $-1 $529 -0 $651 1.960000000000000853 $506 $593 forward @7 unknown #
coedge $-1 -1 $-1 $513 $596 $508 $580 reversed $590 $-1 #
edge $652 -1 $-1 $516 -0 $582 1 $508 $653 forward @7 unknown #
DXID-attrib $-1 -1 $-1 $-1 $509 @10 ASM ENTITY @36 542be972-494b-4d9b-91c7-81e7ed6e4cc2 #
vertex $-1 -1 $-1 $509 $654 #
straight-curve $-1 -1 $-1 -89.36845658550780058 13.9055846048771059 -44.66580703942504016 -1.998401444325283035e-14 -10 7.973688233454156774e-15 I I #
DXID-attrib $-1 -1 $-1 $-1 $510 @10 ASM ENTITY @36 74c8da5f-3309-4627-9e36-8ee84651eea1 #
plane-surface $-1 -1 $-1 -89.36845658550780058 13.90558460487711301 -34.66580703942504726 -1 1.99840144432528335e-15 4.579669976578764813e-16 -4.579669976578780196e-15 -7.973688233454148885e-15 -10 forward_v I I I I #
coedge $-1 -1 $-1 $512 $576 $655 $656 forward $328 $-1 #
coedge $-1 -1 $-1 $657 $658 $512 $588 reversed $659 $-1 #
edge $660 -1 $-1 $661 0 $592 4 $587 $662 forward @7 unknown #
coedge $-1 -1 $-1 $596 $513 $658 $663 reversed $590 $-1 #
loop $-1 -1 $-1 $-1 $589 $539 #
DXID-attrib $-1 -1 $-1 $-1 $514 @10 ASM ENTITY @36 21fc9621-1be5-4d91-9cbc-6af1603fd462 #
vertex $-1 -1 $-1 $588 $664 #
straight-curve $-1 -1 $-1 -25.16845658550777642 13.90558460487698511 -34.66580703942507569 -10 1.99840144432528335e-14 4.579669976578764418e-15 F -0 F 6.420000000000001705 #
point $-1 -1 $-1 -89.36845658550780058 13.90558460487711301 -34.66580703942504726 #
coedge $-1 -1 $-1 $665 $518 $666 $667 reversed $376 $-1 #
coedge $-1 -1 $-1 $579 $589 $518 $597 reversed $590 $-1 #
edge $668 -1 $-1 $582 0 $669 1.960000000000000853 $518 $670 forward @7 unknown #
loop $-1 -1 $-1 $-1 $671 $437 #
coedge $-1 -1 $-1 $599 $599 $672 $673 reversed $520 $-1 #
coedge $-1 -1 $-1 $600 $600 $674 $675 reversed $522 $-1 #
coedge $-1 -1 $-1 $601 $601 $523 $602 forward $676 $-1 #
edge $-1 -1 $-1 $677 0 $677 6.283185307179586232 $601 $678 forward @7 unknown #
coedge $-1 -1 $-1 $524 $679 $607 $680 forward $376 $-1 #
DXID-attrib $-1 -1 $-1 $-1 $525 @10 ASM ENTITY @36 37c7006a-3df7-4fe0-a2d2-8f1e5c55cb81 #
vertex $-1 -1 $-1 $680 $681 #
straight-curve $-1 -1 $-1 -25.16845658550777642 13.90558460487697801 -44.66580703942507569 -1.998401444325283035e-14 -10 7.973688233454156774e-15 I I #
coedge $-1 -1 $-1 $649 $526 $603 $680 reversed $608 $-1 #
loop $-1 -1 $-1 $-1 $649 $531 #
DXID-attrib $-1 -1 $-1 $-1 $527 @10 ASM ENTITY @36 3973507e-c445-4444-a965-b9251ab3a1ed #
straight-curve $-1 -1 $-1 -25.16845658550777642 13.90558460487697801 -44.66580703942507569 4.579669976578780196e-15 7.973688233454148885e-15 10 F 0 F 1 #
point $-1 -1 $-1 -25.16845658550777642 13.90558460487698511 -34.66580703942507569 #
DXID-attrib $-1 -1 $-1 $-1 $531 @10 ASM ENTITY @36 1f1a1b6a-ec6e-4242-83bc-ece9906ad1fa #
face $682 -1 $-1 $683 $643 $15 $-1 $684 forward single #
plane-surface $-1 -1 $-1 -57.26845658550778495 13.90558460487704906 -39.66580703942506148 -1.998401444325282956e-15 -1 7.973688233454157168e-16 -4.579669976578780196e-15 -7.973688233454148885e-15 -10 forward_v I I I I #
DXID-attrib $-1 -1 $-1 $-1 $539 @10 ASM ENTITY @36 50135677-827a-43ce-8dba-512c0f42a895 #
loop $-1 -1 $-1 $685 $686 $459 #
coedge $-1 -1 $-1 $617 $617 $687 $688 reversed $540 $-1 #
straight-curve $-1 -1 $-1 -69.51845658550766416 15.03807114539569412 -94.66580703942506148 2.775557561562888984e-15 10 -7.97368823345414573e-15 I I #
DXID-attrib $-1 -1 $-1 $-1 $551 @10 ASM ENTITY @36 35843d4e-6ecf-43db-a575-5d8c1ef2eda6 #
face $689 -1 $-1 $690 $691 $12 $-1 $692 forward single #
loop $-1 -1 $-1 $693 $694 $551 #
cone-surface $-1 -1 $-1 -57.01845658550767837 -19.96192885460432009 -104.6658070394250331 9.71445146547013452e-17 7.973688233454145335e-16 1 -3.100000000000000533 8.604228440844959244e-16 3.011479954295735045e-16 1 I I 0 -1 3.100000000000000533 forward I I I I #
loop $-1 -1 $-1 $-1 $695 $476 #
coedge $-1 -1 $-1 $624 $624 $696 $697 reversed $552 $-1 #
coedge $-1 -1 $-1 $625 $625 $698 $699 forward $554 $-1 #
coedge $-1 -1 $-1 $626 $626 $555 $627 forward $700 $-1 #
edge $701 -1 $-1 $702 -3.141592653589793116 $702 3.141592653589793116 $555 $703 forward @7 unknown #
coedge $-1 -1 $-1 $628 $628 $556 $629 reversed $704 $-1 #
edge $705 -1 $-1 $706 -3.141592653589793116 $706 3.141592653589793116 $556 $707 forward @7 unknown #
loop $-1 -1 $-1 $-1 $557 $567 #
DXID-attrib $-1 -1 $-1 $-1 $558 @10 ASM ENTITY @36 ae52af5c-a5a7-4436-a962-b80d68adb051 #
vertex $-1 -1 $-1 $558 $708 #
ellipse-curve $-1 -1 $-1 -57.01845658550766416 30.03807114539568701 -94.66580703942506148 -9.71445146547013452e-17 -7.973688233454145335e-16 -1 -3.100000000000000533 8.604228440844959244e-16 3.011479954295735045e-16 1 I I #
loop $-1 -1 $-1 $709 $710 $567 #
coedge $-1 -1 $-1 $635 $635 $711 $712 forward $566 $-1 #
DXID-attrib $-1 -1 $-1 $-1 $567 @10 ASM ENTITY @36 4a283ebb-9939-4009-92bb-3e11b3c931ca #
face $713 -1 $-1 $-1 $714 $12 $-1 $715 reversed single #
plane-surface $-1 -1 $-1 -57.01845658550767126 5.0380711453956879 -94.66580703942504726 9.71445146547013452e-17 7.973688233454145335e-16 1 10 -2.775557561562889773e-15 -9.71445146547011184e-16 forward_v I I I I #
loop $-1 -1 $-1 $716 $717 $319 #
coedge $-1 -1 $-1 $640 $640 $718 $719 forward $570 $-1 #
coedge $-1 -1 $-1 $641 $641 $571 $642 reversed $720 $-1 #
edge $721 -1 $-1 $722 -3.141592653589793116 $722 3.141592653589793116 $641 $723 forward @7 unknown #
loop $-1 -1 $-1 $724 $572 $613 #
DXID-attrib $-1 -1 $-1 $-1 $573 @10 ASM ENTITY @36 70b20461-bb32-448d-b98f-cf60d300b951 #
vertex $-1 -1 $-1 $573 $725 #
ellipse-curve $-1 -1 $-1 -50.768456585507721 43.90558460487703485 -34.6658070394250899 -4.57966997657878059e-16 -7.973688233454148294e-16 -1 -3.100000000000000533 6.195044477408379491e-15 1.419697692739417309e-15 1 I I #
coedge $-1 -1 $-1 $726 $727 $576 $648 reversed $728 $-1 #
edge $729 -1 $-1 $651 0 $730 4 $647 $731 forward @7 unknown #
coedge $-1 -1 $-1 $577 $607 $726 $732 forward $608 $-1 #
DXID-attrib $-1 -1 $-1 $-1 $578 @10 ASM ENTITY @36 572b47cf-d9e7-462f-8b04-f41232bec8b2 #
vertex $-1 -1 $-1 $578 $733 #
DXID-attrib $-1 -1 $-1 $-1 $580 @10 ASM ENTITY @36 874bfad6-6c5b-416e-ba9d-8610eb2518f4 #
straight-curve $-1 -1 $-1 -89.36845658550780058 13.90558460487711301 -34.66580703942504726 -4.579669976578780196e-15 -7.973688233454148885e-15 -10 F -0 F 1 #
point $-1 -1 $-1 -89.36845658550780058 13.9055846048771059 -44.66580703942504016 #
coedge $-1 -1 $-1 $734 $735 $586 $656 reversed $736 $-1 #
edge $737 -1 $-1 $730 -0 $661 2.5 $655 $738 forward @7 unknown #
coedge $-1 -1 $-1 $666 $587 $735 $739 reversed $659 $-1 #
coedge $-1 -1 $-1 $587 $666 $589 $663 forward $659 $-1 #
loop $-1 -1 $-1 $-1 $666 $740 #
DXID-attrib $-1 -1 $-1 $-1 $588 @10 ASM ENTITY @36 eeb03a4b-827b-4139-a277-1c9cf3dd46b5 #
vertex $-1 -1 $-1 $656 $741 #
straight-curve $-1 -1 $-1 -69.76845658550770679 53.90558460487707748 -34.66580703942508279 -1.998401444325283035e-14 -10 7.973688233454156774e-15 I I #
edge $742 -1 $-1 $669 0 $592 1 $658 $743 forward @7 unknown #
point $-1 -1 $-1 -69.76845658550777785 13.90558460487707748 -34.66580703942505437 #
coedge $-1 -1 $-1 $679 $595 $744 $745 reversed $376 $-1 #
coedge $-1 -1 $-1 $658 $657 $595 $667 forward $659 $-1 #
edge $746 -1 $-1 $747 0 $669 4 $666 $748 forward @7 unknown #
DXID-attrib $-1 -1 $-1 $-1 $597 @10 ASM ENTITY @36 bb1c0d31-adc2-4198-8ba8-84f3a1d1d244 #
vertex $-1 -1 $-1 $597 $749 #
straight-curve $-1 -1 $-1 -89.36845658550780058 13.9055846048771059 -44.66580703942504016 10 -1.99840144432528335e-14 -4.579669976578764418e-15 F 0 F 6.420000000000001705 #
coedge $-1 -1 $-1 $671 $671 $750 $751 reversed $598 $-1 #
coedge $-1 -1 $-1 $672 $672 $599 $673 forward $752 $-1 #
edge $-1 -1 $-1 $753 0 $753 6.283185307179586232 $672 $754 forward @7 unknown #
coedge $-1 -1 $-1 $674 $674 $600 $675 forward $755 $-1 #
edge $-1 -1 $-1 $756 0 $756 6.283185307179586232 $674 $757 forward @7 unknown #
loop $-1 -1 $-1 $460 $601 $459 #
vertex $-1 -1 $-1 $602 $758 #
ellipse-curve $-1 -1 $-1 -36.91845658550786879 -37.69441539512299499 -44.66580703942502595 4.57966997657878059e-16 7.973688233454148294e-16 1 2.600000000000001421 -5.195843755245739393e-15 -1.190714193910479364e-15 1 I I #
coedge $-1 -1 $-1 $603 $665 $759 $760 reversed $376 $-1 #
edge $761 -1 $-1 $762 4.460000000000000853 $605 6.420000000000001705 $603 $670 forward @7 unknown #
point $-1 -1 $-1 -25.16845658550777642 13.90558460487697801 -44.66580703942507569 #
DXID-attrib $-1 -1 $-1 $-1 $613 @10 ASM ENTITY @36 8a2a93db-95ab-4645-9baa-3b419b2e39c1 #
face $763 -1 $-1 $764 $720 $15 $-1 $765 forward single #
cone-surface $-1 -1 $-1 -50.76845658550772811 43.90558460487702774 -44.66580703942508279 4.57966997657878059e-16 7.973688233454148294e-16 1 -3.100000000000000533 6.195044477408379491e-15 1.419697692739417309e-15 1 I I 0 -1 3.100000000000000533 forward I I I I #
loop $-1 -1 $-1 $766 $767 $459 #
coedge $-1 -1 $-1 $686 $686 $768 $769 reversed $616 $-1 #
coedge $-1 -1 $-1 $687 $687 $617 $688 forward $724 $-1 #
edge $770 -1 $-1 $771 -3.141592653589793116 $771 3.141592653589793116 $687 $772 forward @7 unknown #
DXID-attrib $-1 -1 $-1 $-1 $620 @10 ASM ENTITY @36 03155439-7673-4eed-baa2-868a8aaad69d #
face $773 -1 $-1 $774 $775 $12 $-1 $776 forward single #
loop $-1 -1 $-1 $777 $778 $620 #
cone-surface $-1 -1 $-1 -35.36782149089671634 -7.461928854604337857 -104.6658070394250331 9.71445146547013452e-17 7.973688233454145335e-16 1 -3.100000000000000533 8.604228440844959244e-16 3.011479954295735045e-16 1 I I 0 -1 3.100000000000000533 forward I I I I #
loop $-1 -1 $-1 $-1 $779 $551 #
coedge $-1 -1 $-1 $694 $694 $780 $781 reversed $621 $-1 #
coedge $-1 -1 $-1 $695 $695 $782 $783 forward $623 $-1 #
coedge $-1 -1 $-1 $696 $696 $624 $697 forward $784 $-1 #
edge $785 -1 $-1 $786 -3.141592653589793116 $786 3.141592653589793116 $624 $787 forward @7 unknown #
coedge $-1 -1 $-1 $698 $698 $625 $699 reversed $788 $-1 #
edge $789 -1 $-1 $790 -3.141592653589793116 $790 3.141592653589793116 $625 $791 forward @7 unknown #
loop $-1 -1 $-1 $630 $626 $567 #
DXID-attrib $-1 -1 $-1 $-1 $627 @10 ASM ENTITY @36 b7f1bdf5-7ba7-4a63-8ae5-6231b1c9e819 #
vertex $-1 -1 $-1 $627 $792 #
ellipse-curve $-1 -1 $-1 -78.66909168011862619 17.53807114539569767 -94.66580703942506148 -9.71445146547013452e-17 -7.973688233454145335e-16 -1 -3.100000000000000533 8.604228440844959244e-16 3.011479954295735045e-16 1 I I #
loop $-1 -1 $-1 $-1 $628 $637 #
DXID-attrib $-1 -1 $-1 $-1 $629 @10 ASM ENTITY @36 d4ebfbf0-f1e2-4eca-b9a2-daa43621a61c #
vertex $-1 -1 $-1 $629 $793 #
ellipse-curve $-1 -1 $-1 -57.01845658550766416 30.03807114539567991 -104.6658070394250615 -9.71445146547013452e-17 -7.973688233454145335e-16 -1 -3.100000000000000533 8.604228440844959244e-16 3.011479954295735045e-16 1 I I #
point $-1 -1 $-1 -53.91845658550766274 30.03807114539568701 -94.66580703942506148 #
loop $-1 -1 $-1 $794 $795 $567 #
coedge $-1 -1 $-1 $710 $710 $796 $797 forward $634 $-1 #
coedge $-1 -1 $-1 $711 $711 $635 $712 reversed $798 $-1 #
edge $799 -1 $-1 $800 0 $800 6.283185307179586232 $711 $801 forward @7 unknown #
DXID-attrib $-1 -1 $-1 $-1 $637 @10 ASM ENTITY @36 b3a705f9-6626-4ef0-8037-b1df64470d70 #
loop $-1 -1 $-1 $802 $803 $637 #
plane-surface $-1 -1 $-1 -57.01845658550767126 5.038071145395679906 -104.6658070394250473 9.71445146547013452e-17 7.973688233454145335e-16 1 10 -2.775557561562889773e-15 -9.71445146547011184e-16 forward_v I I I I #
loop $-1 -1 $-1 $755 $750 $319 #
coedge $-1 -1 $-1 $717 $717 $804 $805 forward $639 $-1 #
coedge $-1 -1 $-1 $718 $718 $640 $719 reversed $806 $-1 #
edge $807 -1 $-1 $808 -3.141592653589793116 $808 3.141592653589793116 $718 $809 forward @7 unknown #
loop $-1 -1 $-1 $810 $641 $683 #
DXID-attrib $-1 -1 $-1 $-1 $642 @10 ASM ENTITY @36 6b293df5-e596-4095-ab53-6ffe1280cdad #
vertex $-1 -1 $-1 $642 $811 #
ellipse-curve $-1 -1 $-1 -63.268456585507721 43.90558460487706327 -34.66580703942507569 -4.57966997657878059e-16 -7.973688233454148294e-16 -1 -3.100000000000000089 6.195044477408378702e-15 1.419697692739417112e-15 1 I I #
loop $-1 -1 $-1 $-1 $687 $613 #
point $-1 -1 $-1 -47.66845658550772669 43.90558460487703485 -34.6658070394250899 #
coedge $-1 -1 $-1 $759 $647 $649 $732 reversed $728 $-1 #
coedge $-1 -1 $-1 $647 $759 $734 $812 forward $728 $-1 #
loop $-1 -1 $-1 $-1 $759 $813 #
DXID-attrib $-1 -1 $-1 $-1 $648 @10 ASM ENTITY @36 217229a5-a55c-47d2-8deb-4f19fd1ce031 #
vertex $-1 -1 $-1 $648 $814 #
straight-curve $-1 -1 $-1 -44.76845658550777785 13.90558460487702774 -34.66580703942506148 1.998401444325283035e-14 10 -7.973688233454156774e-15 I I #
edge $815 -1 $-1 $762 0 $651 1 $726 $816 forward @7 unknown #
point $-1 -1 $-1 -44.76845658550777785 13.90558460487702774 -34.66580703942506148 #
coedge $-1 -1 $-1 $744 $655 $727 $812 reversed $736 $-1 #
coedge $-1 -1 $-1 $655 $744 $657 $739 forward $736 $-1 #
loop $-1 -1 $-1 $-1 $744 $817 #
DXID-attrib $-1 -1 $-1 $-1 $656 @10 ASM ENTITY @36 9befaa4b-2ccc-4231-94cf-ac241e2f7a0e #
straight-curve $-1 -1 $-1 -44.76845658550770679 53.90558460487702774 -34.665807039425097 -10 1.99840144432528335e-14 4.579669976578764418e-15 I I #
edge $818 -1 $-1 $747 0 $661 1 $657 $819 forward @7 unknown #
face $820 -1 $-1 $-1 $659 $15 $-1 $821 forward single #
point $-1 -1 $-1 -69.76845658550770679 53.90558460487707748 -34.66580703942508279 #
DXID-attrib $-1 -1 $-1 $-1 $663 @10 ASM ENTITY @36 e0262d24-396e-47f1-af33-2f5ba3257c91 #
straight-curve $-1 -1 $-1 -69.76845658550779206 13.90558460487707038 -44.66580703942505437 4.579669976578780196e-15 7.973688233454148885e-15 10 I I #
coedge $-1 -1 $-1 $735 $734 $665 $745 forward $736 $-1 #
edge $822 -1 $-1 $823 -0 $747 2.5 $744 $824 forward @7 unknown #
DXID-attrib $-1 -1 $-1 $-1 $667 @10 ASM ENTITY @36 749c1db4-464e-4ad9-b004-ac0335533f8a #
vertex $-1 -1 $-1 $667 $825 #
straight-curve $-1 -1 $-1 -69.76845658550770679 53.90558460487707038 -44.66580703942508279 -1.998401444325283035e-14 -10 7.973688233454156774e-15 F 0 F 4 #
point $-1 -1 $-1 -69.76845658550779206 13.90558460487707038 -44.66580703942505437 #
coedge $-1 -1 $-1 $750 $750 $671 $751 forward $716 $-1 #
edge $-1 -1 $-1 $826 0 $826 6.283185307179586232 $750 $827 forward @7 unknown #
loop $-1 -1 $-1 $676 $672 $459 #
vertex $-1 -1 $-1 $673 $828 #
ellipse-curve $-1 -1 $-1 -77.61845658550788585 -37.69441539512292394 -44.66580703942500463 4.57966997657878059e-16 7.973688233454148294e-16 1 2.600000000000000089 -5.195843755245737027e-15 -1.19071419391047897e-15 1 I I #
loop $-1 -1 $-1 $328 $674 $319 #
vertex $-1 -1 $-1 $675 $829 #
ellipse-curve $-1 -1 $-1 -36.91845658550786169 -37.69441539512299499 -34.66580703942502595 -4.57966997657878059e-16 -7.973688233454148294e-16 -1 2.600000000000001421 -5.195843755245739393e-15 -1.190714193910479364e-15 1 I I #
point $-1 -1 $-1 -34.31845658550786027 -37.6944153951230092 -44.66580703942502595 #
coedge $-1 -1 $-1 $727 $726 $679 $760 forward $728 $-1 #
edge $830 -1 $-1 $762 0 $823 4 $759 $831 forward @7 unknown #
DXID-attrib $-1 -1 $-1 $-1 $680 @10 ASM ENTITY @36 dac09e3d-a2ce-403d-96c5-d659bb876768 #
vertex $-1 -1 $-1 $760 $832 #
DXID-attrib $-1 -1 $-1 $-1 $683 @10 ASM ENTITY @36 5c88542a-5d8f-4642-8a02-a5b94880da9b #
face $833 -1 $-1 $834 $806 $15 $-1 $835 forward single #
cone-surface $-1 -1 $-1 -63.26845658550772811 43.90558460487705617 -44.66580703942507569 4.57966997657878059e-16 7.973688233454148294e-16 1 -3.100000000000000089 6.195044477408378702e-15 1.419697692739417112e-15 1 I I 0 -1 3.100000000000000089 forward I I I I #
loop $-1 -1 $-1 $752 $836 $459 #
coedge $-1 -1 $-1 $767 $767 $837 $838 reversed $685 $-1 #
coedge $-1 -1 $-1 $768 $768 $686 $769 forward $810 $-1 #
edge $839 -1 $-1 $840 -3.141592653589793116 $840 3.141592653589793116 $768 $841 forward @7 unknown #
DXID-attrib $-1 -1 $-1 $-1 $688 @10 ASM ENTITY @36 8e854950-11ad-4225-88ee-e5d4309acb87 #
vertex $-1 -1 $-1 $688 $842 #
ellipse-curve $-1 -1 $-1 -50.76845658550772811 43.90558460487702774 -44.66580703942508279 -4.57966997657878059e-16 -7.973688233454148294e-16 -1 -3.100000000000000533 6.195044477408379491e-15 1.419697692739417309e-15 1 I I #
DXID-attrib $-1 -1 $-1 $-1 $690 @10 ASM ENTITY @36 4382e8bb-eff1-4dcc-9fc1-351021bb3c3e #
face $843 -1 $-1 $567 $798 $12 $-1 $844 forward single #
loop $-1 -1 $-1 $845 $796 $690 #
cone-surface $-1 -1 $-1 -35.36782149089668792 17.53807114539565504 -104.6658070394250615 9.71445146547013452e-17 7.973688233454145335e-16 1 -3.100000000000000533 8.604228440844959244e-16 3.011479954295735045e-16 1 I I 0 -1 3.100000000000000533 forward I I I I #
loop $-1 -1 $-1 $-1 $846 $620 #
coedge $-1 -1 $-1 $778 $778 $795 $847 reversed $691 $-1 #
coedge $-1 -1 $-1 $779 $779 $848 $849 forward $693 $-1 #
coedge $-1 -1 $-1 $780 $780 $694 $781 forward $794 $-1 #
edge $850 -1 $-1 $851 -3.141592653589793116 $851 3.141592653589793116 $694 $852 forward @7 unknown #
coedge $-1 -1 $-1 $782 $782 $695 $783 reversed $853 $-1 #
edge $854 -1 $-1 $855 -3.141592653589793116 $855 3.141592653589793116 $695 $856 forward @7 unknown #
loop $-1 -1 $-1 $700 $696 $567 #
DXID-attrib $-1 -1 $-1 $-1 $697 @10 ASM ENTITY @36 e2998609-f266-49ea-8612-1983f0890b0a #
vertex $-1 -1 $-1 $697 $857 #
ellipse-curve $-1 -1 $-1 -78.6690916801186404 -7.461928854604300554 -94.66580703942503305 -9.71445146547013452e-17 -7.973688233454145335e-16 -1 -3.100000000000000533 8.604228440844959244e-16 3.011479954295735045e-16 1 I I #
loop $-1 -1 $-1 $704 $698 $637 #
DXID-attrib $-1 -1 $-1 $-1 $699 @10 ASM ENTITY @36 a9fa807b-6bcb-46d7-a021-22dd249b7728 #
vertex $-1 -1 $-1 $699 $858 #
ellipse-curve $-1 -1 $-1 -78.66909168011862619 17.53807114539569056 -104.6658070394250615 -9.71445146547013452e-17 -7.973688233454145335e-16 -1 -3.100000000000000533 8.604228440844959244e-16 3.011479954295735045e-16 1 I I #
point $-1 -1 $-1 -75.56909168011863187 17.53807114539569767 -94.66580703942506148 #
point $-1 -1 $-1 -53.91845658550766274 30.03807114539567991 -104.6658070394250615 #
loop $-1 -1 $-1 $784 $780 $567 #
coedge $-1 -1 $-1 $795 $795 $778 $847 forward $709 $-1 #
coedge $-1 -1 $-1 $796 $796 $710 $797 reversed $775 $-1 #
edge $859 -1 $-1 $860 -3.141592653589793116 $860 3.141592653589793116 $796 $861 forward @7 unknown #
loop $-1 -1 $-1 $862 $711 $774 #
DXID-attrib $-1 -1 $-1 $-1 $712 @10 ASM ENTITY @36 df3ca039-5341-4488-80c7-f2ed90bfb72a #
vertex $-1 -1 $-1 $712 $863 #
ellipse-curve $-1 -1 $-1 -57.01845658550767126 5.0380711453956879 -94.66580703942504726 9.71445146547013452e-17 7.973688233454145335e-16 1 31.50000000000000355 -8.7430063189231046e-15 -3.060052211623085742e-15 1 I I #
loop $-1 -1 $-1 $864 $865 $637 #
coedge $-1 -1 $-1 $803 $803 $866 $867 reversed $714 $-1 #
coedge $-1 -1 $-1 $804 $804 $717 $805 reversed $868 $-1 #
edge $869 -1 $-1 $870 -3.141592653589793116 $870 3.141592653589793116 $804 $871 forward @7 unknown #
loop $-1 -1 $-1 $872 $718 $764 #
DXID-attrib $-1 -1 $-1 $-1 $719 @10 ASM ENTITY @36 e6463c1c-7008-49d5-9132-6174ad27b333 #
vertex $-1 -1 $-1 $719 $873 #
ellipse-curve $-1 -1 $-1 -50.76845658550776363 23.9055846048770384 -34.66580703942506858 -4.57966997657878059e-16 -7.973688233454148294e-16 -1 -3.100000000000000533 6.195044477408379491e-15 1.419697692739417309e-15 1 I I #
loop $-1 -1 $-1 $-1 $768 $683 #
point $-1 -1 $-1 -60.16845658550771958 43.90558460487705617 -34.66580703942508279 #
edge $874 -1 $-1 $823 0 $730 1 $727 $875 forward @7 unknown #
face $876 -1 $-1 $740 $728 $15 $-1 $877 forward single #
point $-1 -1 $-1 -44.76845658550770679 53.90558460487702774 -34.665807039425097 #
DXID-attrib $-1 -1 $-1 $-1 $732 @10 ASM ENTITY @36 ad172b2c-c99d-41dd-91f0-541cbbb8a7c4 #
straight-curve $-1 -1 $-1 -44.76845658550778495 13.90558460487701353 -44.66580703942506148 4.579669976578780196e-15 7.973688233454148885e-15 10 I I #
face $878 -1 $-1 $813 $736 $15 $-1 $879 forward single #
DXID-attrib $-1 -1 $-1 $-1 $739 @10 ASM ENTITY @36 5c06805c-b237-43a3-a006-f8d3b36e2c81 #
straight-curve $-1 -1 $-1 -69.76845658550770679 53.90558460487707038 -44.66580703942508279 4.579669976578780196e-15 7.973688233454148885e-15 10 I I #
DXID-attrib $-1 -1 $-1 $-1 $740 @10 ASM ENTITY @36 df5f9d7e-838f-4c89-b2f0-c026fc6a36e5 #
plane-surface $-1 -1 $-1 -69.76845658550770679 53.90558460487707038 -44.66580703942508279 -1 1.99840144432528335e-15 4.579669976578764813e-16 -1.998401444325283035e-14 -10 7.973688233454156774e-15 forward_v I I I I #
DXID-attrib $-1 -1 $-1 $-1 $745 @10 ASM ENTITY @36 18f98d19-3c1c-4ad4-9fd8-788d818e43d9 #
vertex $-1 -1 $-1 $745 $880 #
straight-curve $-1 -1 $-1 -44.76845658550770679 53.90558460487701353 -44.665807039425097 -10 1.99840144432528335e-14 4.579669976578764418e-15 F -0 F 2.5 #
point $-1 -1 $-1 -69.76845658550770679 53.90558460487707038 -44.66580703942508279 #
vertex $-1 -1 $-1 $751 $881 #
ellipse-curve $-1 -1 $-1 -77.61845658550788585 -37.69441539512292394 -34.66580703942500463 -4.57966997657878059e-16 -7.973688233454148294e-16 -1 2.600000000000000089 -5.195843755245737027e-15 -1.19071419391047897e-15 1 I I #
point $-1 -1 $-1 -75.01845658550789153 -37.69441539512292394 -44.66580703942501174 #
point $-1 -1 $-1 -34.31845658550786027 -37.6944153951230092 -34.66580703942502595 #
DXID-attrib $-1 -1 $-1 $-1 $760 @10 ASM ENTITY @36 c18e4e66-ead1-4cbe-b017-951c645454af #
straight-curve $-1 -1 $-1 -44.76845658550778495 13.90558460487701353 -44.66580703942506148 1.998401444325283035e-14 10 -7.973688233454156774e-15 F 0 F 4 #
point $-1 -1 $-1 -44.76845658550778495 13.90558460487701353 -44.66580703942506148 #
DXID-attrib $-1 -1 $-1 $-1 $764 @10 ASM ENTITY @36 1f291af8-40f7-48eb-a83f-726c2699d81d #
face $882 -1 $-1 $817 $868 $15 $-1 $883 forward single #
cone-surface $-1 -1 $-1 -50.76845658550776363 23.90558460487702774 -44.66580703942506858 4.57966997657878059e-16 7.973688233454148294e-16 1 -3.100000000000000533 6.195044477408379491e-15 1.419697692739417309e-15 1 I I 0 -1 3.100000000000000533 forward I I I I #
coedge $-1 -1 $-1 $836 $836 $884 $885 reversed $766 $-1 #
coedge $-1 -1 $-1 $837 $837 $767 $838 forward $872 $-1 #
edge $886 -1 $-1 $887 -3.141592653589793116 $887 3.141592653589793116 $837 $888 forward @7 unknown #
DXID-attrib $-1 -1 $-1 $-1 $769 @10 ASM ENTITY @36 df17301d-efb6-43f0-8903-c530b8167cd9 #
vertex $-1 -1 $-1 $769 $889 #
ellipse-curve $-1 -1 $-1 -63.26845658550772811 43.90558460487705617 -44.66580703942507569 -4.57966997657878059e-16 -7.973688233454148294e-16 -1 -3.100000000000000089 6.195044477408378702e-15 1.419697692739417112e-15 1 I I #
point $-1 -1 $-1 -47.66845658550772669 43.90558460487702064 -44.66580703942508279 #
DXID-attrib $-1 -1 $-1 $-1 $774 @10 ASM ENTITY @36 f2a16c2e-93e3-47d6-9684-e02e66c98cde #
cone-surface $-1 -1 $-1 -57.01845658550767126 5.038071145395679906 -104.6658070394250473 9.71445146547013452e-17 7.973688233454145335e-16 1 31.50000000000000355 -8.7430063189231046e-15 -3.060052211623085742e-15 1 I I 0 1 31.50000000000000355 forward I I I I #
loop $-1 -1 $-1 $-1 $890 $690 #
coedge $-1 -1 $-1 $846 $846 $891 $892 forward $777 $-1 #
edge $893 -1 $-1 $894 -3.141592653589793116 $894 3.141592653589793116 $778 $895 forward @7 unknown #
coedge $-1 -1 $-1 $848 $848 $779 $849 reversed $896 $-1 #
edge $897 -1 $-1 $898 -3.141592653589793116 $898 3.141592653589793116 $779 $899 forward @7 unknown #
DXID-attrib $-1 -1 $-1 $-1 $781 @10 ASM ENTITY @36 e9e33908-75ff-44d2-9c12-6d85f7314ec0 #
vertex $-1 -1 $-1 $781 $900 #
ellipse-curve $-1 -1 $-1 -57.01845658550767837 -19.96192885460431299 -94.66580703942503305 -9.71445146547013452e-17 -7.973688233454145335e-16 -1 -3.100000000000000533 8.604228440844959244e-16 3.011479954295735045e-16 1 I I #
loop $-1 -1 $-1 $788 $782 $637 #
DXID-attrib $-1 -1 $-1 $-1 $783 @10 ASM ENTITY @36 f2c12f69-99b2-4abe-93b8-0116245bb751 #
vertex $-1 -1 $-1 $783 $901 #
ellipse-curve $-1 -1 $-1 -78.6690916801186404 -7.461928854604309436 -104.6658070394250331 -9.71445146547013452e-17 -7.973688233454145335e-16 -1 -3.100000000000000533 8.604228440844959244e-16 3.011479954295735045e-16 1 I I #
point $-1 -1 $-1 -75.56909168011864608 -7.46192885460430233 -94.66580703942503305 #
point $-1 -1 $-1 -75.56909168011863187 17.53807114539568701 -104.6658070394250615 #
DXID-attrib $-1 -1 $-1 $-1 $797 @10 ASM ENTITY @36 04c2402b-31bb-4255-9452-b9e5b2f9524c #
vertex $-1 -1 $-1 $797 $902 #
ellipse-curve $-1 -1 $-1 -35.36782149089668792 17.53807114539566214 -94.66580703942506148 -9.71445146547013452e-17 -7.973688233454145335e-16 -1 -3.100000000000000533 8.604228440844959244e-16 3.011479954295735045e-16 1 I I #
loop $-1 -1 $-1 $-1 $866 $774 #
point $-1 -1 $-1 -25.51845658550766771 5.038071145395679018 -94.66580703942504726 #
loop $-1 -1 $-1 $896 $891 $637 #
coedge $-1 -1 $-1 $865 $865 $890 $903 reversed $802 $-1 #
coedge $-1 -1 $-1 $866 $866 $803 $867 forward $862 $-1 #
edge $904 -1 $-1 $905 0 $905 6.283185307179586232 $866 $906 forward @7 unknown #
loop $-1 -1 $-1 $907 $804 $834 #
DXID-attrib $-1 -1 $-1 $-1 $805 @10 ASM ENTITY @36 f1d7d003-ae10-4574-a935-6977d8a1b625 #
vertex $-1 -1 $-1 $805 $908 #
ellipse-curve $-1 -1 $-1 -63.26845658550776363 23.90558460487706327 -34.66580703942506148 -4.57966997657878059e-16 -7.973688233454148294e-16 -1 -3.100000000000000089 6.195044477408378702e-15 1.419697692739417112e-15 1 I I #
loop $-1 -1 $-1 $-1 $837 $764 #
point $-1 -1 $-1 -47.66845658550776221 23.90558460487703485 -34.66580703942506858 #
DXID-attrib $-1 -1 $-1 $-1 $812 @10 ASM ENTITY @36 8c892025-2497-4f6c-a1c6-56a0c5ac505c #
straight-curve $-1 -1 $-1 -44.76845658550770679 53.90558460487701353 -44.665807039425097 4.579669976578780196e-15 7.973688233454148885e-15 10 I I #
DXID-attrib $-1 -1 $-1 $-1 $813 @10 ASM ENTITY @36 8f1d6738-3f2e-494e-ab2d-7a24b4aa783b #
plane-surface $-1 -1 $-1 -44.76845658550778495 13.90558460487701353 -44.66580703942506148 1 -1.99840144432528335e-15 -4.579669976578764813e-16 1.998401444325283035e-14 10 -7.973688233454156774e-15 forward_v I I I I #
DXID-attrib $-1 -1 $-1 $-1 $817 @10 ASM ENTITY @36 c9bd1fe5-336b-4420-97b5-83dce78b8211 #
plane-surface $-1 -1 $-1 -44.76845658550770679 53.90558460487701353 -44.665807039425097 1.998401444325282956e-15 1 -7.973688233454157168e-16 -10 1.99840144432528335e-14 4.579669976578764418e-15 forward_v I I I I #
point $-1 -1 $-1 -44.76845658550770679 53.90558460487701353 -44.665807039425097 #
point $-1 -1 $-1 -75.01845658550789153 -37.69441539512292394 -34.66580703942500463 #
DXID-attrib $-1 -1 $-1 $-1 $834 @10 ASM ENTITY @36 ec86802b-e373-4a89-a45b-984373fcd85a #
cone-surface $-1 -1 $-1 -63.26845658550776363 23.90558460487705617 -44.66580703942506148 4.57966997657878059e-16 7.973688233454148294e-16 1 -3.100000000000000089 6.195044477408378702e-15 1.419697692739417112e-15 1 I I 0 -1 3.100000000000000089 forward I I I I #
coedge $-1 -1 $-1 $884 $884 $836 $885 forward $907 $-1 #
edge $909 -1 $-1 $910 -3.141592653589793116 $910 3.141592653589793116 $884 $911 forward @7 unknown #
DXID-attrib $-1 -1 $-1 $-1 $838 @10 ASM ENTITY @36 db861149-9340-42a5-afce-0dc2fbafa110 #
vertex $-1 -1 $-1 $838 $912 #
ellipse-curve $-1 -1 $-1 -50.76845658550776363 23.90558460487702774 -44.66580703942506858 -4.57966997657878059e-16 -7.973688233454148294e-16 -1 -3.100000000000000533 6.195044477408379491e-15 1.419697692739417309e-15 1 I I #
point $-1 -1 $-1 -60.16845658550772669 43.90558460487704906 -44.66580703942508279 #
coedge $-1 -1 $-1 $890 $890 $865 $903 forward $845 $-1 #
coedge $-1 -1 $-1 $891 $891 $846 $892 reversed $864 $-1 #
edge $913 -1 $-1 $914 -3.141592653589793116 $914 3.141592653589793116 $846 $915 forward @7 unknown #
DXID-attrib $-1 -1 $-1 $-1 $847 @10 ASM ENTITY @36 ce459be6-4a84-4628-adc1-d541e44d1f8b #
vertex $-1 -1 $-1 $847 $916 #
ellipse-curve $-1 -1 $-1 -35.36782149089671634 -7.461928854604328976 -94.66580703942503305 -9.71445146547013452e-17 -7.973688233454145335e-16 -1 -3.100000000000000533 8.604228440844959244e-16 3.011479954295735045e-16 1 I I #
loop $-1 -1 $-1 $853 $848 $637 #
DXID-attrib $-1 -1 $-1 $-1 $849 @10 ASM ENTITY @36 285aa226-9e17-43d3-bb72-36e5d313550f #
vertex $-1 -1 $-1 $849 $917 #
ellipse-curve $-1 -1 $-1 -57.01845658550767837 -19.96192885460432009 -104.6658070394250331 -9.71445146547013452e-17 -7.973688233454145335e-16 -1 -3.100000000000000533 8.604228440844959244e-16 3.011479954295735045e-16 1 I I #
point $-1 -1 $-1 -53.91845658550768405 -19.96192885460431299 -94.66580703942503305 #
point $-1 -1 $-1 -75.56909168011864608 -7.461928854604311212 -104.6658070394250331 #
point $-1 -1 $-1 -32.2678214908966936 17.53807114539566214 -94.66580703942506148 #
edge $918 -1 $-1 $919 -3.141592653589793116 $919 3.141592653589793116 $890 $920 forward @7 unknown #
DXID-attrib $-1 -1 $-1 $-1 $867 @10 ASM ENTITY @36 45377534-935e-43fe-8309-78c5b0892492 #
vertex $-1 -1 $-1 $867 $921 #
ellipse-curve $-1 -1 $-1 -57.01845658550767126 5.038071145395679906 -104.6658070394250473 9.71445146547013452e-17 7.973688233454145335e-16 1 31.50000000000000355 -8.7430063189231046e-15 -3.060052211623085742e-15 1 I I #
loop $-1 -1 $-1 $-1 $884 $834 #
point $-1 -1 $-1 -60.16845658550776221 23.90558460487705617 -34.66580703942506148 #
DXID-attrib $-1 -1 $-1 $-1 $885 @10 ASM ENTITY @36 466ecc04-dab9-4c4c-ab1b-a6a3a77c4014 #
vertex $-1 -1 $-1 $885 $922 #
ellipse-curve $-1 -1 $-1 -63.26845658550776363 23.90558460487705617 -44.66580703942506148 -4.57966997657878059e-16 -7.973688233454148294e-16 -1 -3.100000000000000089 6.195044477408378702e-15 1.419697692739417112e-15 1 I I #
point $-1 -1 $-1 -47.66845658550776932 23.90558460487702419 -44.66580703942506858 #
DXID-attrib $-1 -1 $-1 $-1 $892 @10 ASM ENTITY @36 26be1c21-1582-4bb2-bd1c-59d6fed7a1d5 #
vertex $-1 -1 $-1 $892 $923 #
ellipse-curve $-1 -1 $-1 -35.36782149089671634 -7.461928854604337857 -104.6658070394250331 -9.71445146547013452e-17 -7.973688233454145335e-16 -1 -3.100000000000000533 8.604228440844959244e-16 3.011479954295735045e-16 1 I I #
point $-1 -1 $-1 -32.26782149089670781 -7.461928854604328976 -94.66580703942503305 #
point $-1 -1 $-1 -53.91845658550768405 -19.96192885460432009 -104.6658070394250331 #
DXID-attrib $-1 -1 $-1 $-1 $903 @10 ASM ENTITY @36 36e95f3e-b64c-4649-9228-dc5e72f14370 #
vertex $-1 -1 $-1 $903 $924 #
ellipse-curve $-1 -1 $-1 -35.36782149089668792 17.53807114539565504 -104.6658070394250615 -9.71445146547013452e-17 -7.973688233454145335e-16 -1 -3.100000000000000533 8.604228440844959244e-16 3.011479954295735045e-16 1 I I #
point $-1 -1 $-1 -25.51845658550766771 5.038071145395671024 -104.6658070394250473 #
point $-1 -1 $-1 -60.16845658550776932 23.90558460487704551 -44.66580703942506148 #
point $-1 -1 $-1 -32.26782149089670781 -7.461928854604337857 -104.6658070394250331 #
point $-1 -1 $-1 -32.2678214908966936 17.53807114539565504 -104.6658070394250615 #
End-of-ACIS-data 